<svg xmlns="http://www.w3.org/2000/svg" viewBox="0 0 1900 1080" width="1900" height="1080" preserveAspectRatio="xMidYMid meet" style="width: 100%; height: 100%;"><defs><clipPath id="__lottie_element_382"><rect width="1900" height="1080" x="0" y="0"></rect></clipPath></defs><g clip-path="url(#__lottie_element_382)"><g transform="matrix(-1.0621378421783447,1.4779253005981445,1.4779253005981445,1.0621378421783447,1256.18896484375,55.69770050048828)" opacity="1" style="display: block;"><g opacity="1" transform="matrix(1,0,0,1,255.15499877929688,74.77899932861328)"><path fill="rgb(0,93,91)" fill-opacity="1" d=" M-148.17300415039062,-55.69499969482422 C-229.75,-74.52899932861328 -246.85699462890625,-0.4320000112056732 -165.2790069580078,18.402000427246094 C-31.386999130249023,49.3129997253418 246.85699462890625,74.52899932861328 246.85699462890625,74.52899932861328 C246.85699462890625,74.52899932861328 -14.281000137329102,-24.784000396728516 -148.17300415039062,-55.69499969482422z"></path></g><g opacity="1" transform="matrix(1,0,0,1,67.16100311279297,52.44200134277344)"><path fill="rgb(0,188,174)" fill-opacity="1" d=" M23.81399917602539,-36.952999114990234 C-7.921999931335449,-44.279998779296875 -66.91100311279297,-18.975000381469727 -66.91100311279297,-18.975000381469727 C-66.91100311279297,-18.975000381469727 -24.983999252319336,29.625 6.751999855041504,36.95199966430664 C38.487998962402344,44.27899932861328 57.48699951171875,31.239999771118164 62.19900131225586,10.831999778747559 C66.91100311279297,-9.576000213623047 55.54999923706055,-29.625999450683594 23.81399917602539,-36.952999114990234z"></path></g><g opacity="1" transform="matrix(1,0,0,1,287.1650085449219,97.38300323486328)"><path fill="rgb(0,188,174)" fill-opacity="1" d=" M-212.58299255371094,-51.92399978637695 C-212.58299255371094,-51.92399978637695 -214.84800720214844,-42.11199951171875 -214.84800720214844,-42.11199951171875 C-214.84800720214844,-42.11199951171875 214.84800720214844,51.92399978637695 214.84800720214844,51.92399978637695 C214.84800720214844,51.92399978637695 -212.58299255371094,-51.92399978637695 -212.58299255371094,-51.92399978637695z"></path></g><g opacity="1" transform="matrix(1,0,0,1,84.93000030517578,53.01599884033203)"><path fill="rgb(255,185,0)" fill-opacity="1" d=" M5.673999786376953,-24.575000762939453 C-10.890999794006348,-28.39900016784668 -26.860000610351562,-20.496999740600586 -29.993999481201172,-6.925000190734863 C-33.12699890136719,6.646999835968018 -22.238000869750977,20.75 -5.672999858856201,24.573999404907227 C10.892000198364258,28.39900016784668 26.861000061035156,20.496000289916992 29.9950008392334,6.923999786376953 C33.12799835205078,-6.6479997634887695 22.23900032043457,-20.750999450683594 5.673999786376953,-24.575000762939453z"></path></g><g opacity="1" transform="matrix(1,0,0,1,84.93000030517578,53.01499938964844)"><path fill="rgb(122,29,124)" fill-opacity="1" d=" M3.802999973297119,-16.472000122070312 C-7.129000186920166,-18.996000289916992 -17.69300079345703,-13.666999816894531 -19.792999267578125,-4.570000171661377 C-21.893999099731445,4.5269999504089355 -14.734000205993652,13.949000358581543 -3.802999973297119,16.472000122070312 C7.129000186920166,18.996000289916992 17.69300079345703,13.666999816894531 19.79400062561035,4.570000171661377 C21.893999099731445,-4.5269999504089355 14.734999656677246,-13.947999954223633 3.802999973297119,-16.472000122070312z"></path></g><g opacity="1" transform="matrix(1,0,0,1,268.2049865722656,88.5770034790039)"><path fill="rgb(0,188,174)" fill-opacity="1" d=" M-60.744998931884766,-41.637001037597656 C-19.315000534057617,-28.8700008392334 24.68199920654297,-14.196000099182129 65.69599914550781,-0.027000000700354576 C65.69599914550781,-0.027000000700354576 75.80799865722656,9.319000244140625 72.53500366210938,23.496999740600586 C69.26200103759766,37.67399978637695 56.07699966430664,41.637001037597656 56.07699966430664,41.637001037597656 C13.020000457763672,36.40800094604492 -32.935001373291016,30.304000854492188 -75.76100158691406,23.628999710083008 C-75.78800201416016,23.61199951171875 -75.80799865722656,23.607999801635742 -75.80799865722656,23.607999801635742 C-75.80799865722656,23.607999801635742 -56.7400016784668,18.24799919128418 -51.347999572753906,-5.10699987411499 C-45.95600128173828,-28.461000442504883 -60.744998931884766,-41.637001037597656 -60.744998931884766,-41.637001037597656z"></path></g><g opacity="1" transform="matrix(1,0,0,1,273.7349853515625,98.04499816894531)"><path fill="rgb(255,185,0)" fill-opacity="1" d=" M9.854000091552734,-15.656000137329102 C-3.1700000762939453,-18.663000106811523 -27.489999771118164,-7.785999774932861 -27.489999771118164,-7.785999774932861 C-27.489999771118164,-7.785999774932861 -10.39799976348877,12.64900016784668 2.625,15.656000137329102 C15.64900016784668,18.66200065612793 23.496000289916992,13.090999603271484 25.493000030517578,4.445000171661377 C27.48900032043457,-4.202000141143799 22.87700080871582,-12.64900016784668 9.854000091552734,-15.656000137329102z"></path></g><g opacity="1" transform="matrix(1,0,0,1,279.22900390625,97.87300109863281)"><path fill="rgb(122,29,124)" fill-opacity="1" d=" M2.265000104904175,-9.812999725341797 C-5.436999797821045,-11.590999603271484 -12.694999694824219,-8.638999938964844 -13.946000099182129,-3.2190001010894775 C-15.196999549865723,2.200000047683716 -9.968000411987305,8.034000396728516 -2.2660000324249268,9.812000274658203 C5.435999870300293,11.59000015258789 12.694000244140625,8.637999534606934 13.946000099182129,3.2190001010894775 C15.196999549865723,-2.200000047683716 9.967000007629395,-8.03499984741211 2.265000104904175,-9.812999725341797z"></path></g></g><g transform="matrix(-0.9455724954605103,1.5550860166549683,1.5550860166549683,0.9455724954605103,1424.4332275390625,164.6439971923828)" opacity="1" style="display: block;"><g opacity="1" transform="matrix(1,0,0,1,260.00201416015625,57.9739990234375)"><path fill="rgb(0,93,91)" fill-opacity="1" d=" M-166.17799377441406,-30.482999801635742 C-248.8699951171875,-17.38599967956543 -236.97500610351562,57.7239990234375 -154.2830047607422,44.62699890136719 C-18.56100082397461,23.1299991607666 248.8699951171875,-57.7239990234375 248.8699951171875,-57.7239990234375 C248.8699951171875,-57.7239990234375 -30.45599937438965,-51.979000091552734 -166.17799377441406,-30.482999801635742z"></path></g><g opacity="1" transform="matrix(1,0,0,1,67.32599639892578,67.61199951171875)"><path fill="rgb(0,188,174)" fill-opacity="1" d=" M10.309000015258789,-37.45800018310547 C-21.861000061035156,-32.362998962402344 -67.07599639892578,13.196000099182129 -67.07599639892578,13.196000099182129 C-67.07599639892578,13.196000099182129 -9.994999885559082,42.553001403808594 22.173999786376953,37.457000732421875 C54.34400177001953,32.36199951171875 67.07599639892578,13.154999732971191 63.79899978637695,-7.5329999923706055 C60.52299880981445,-28.219999313354492 42.479000091552734,-42.553001403808594 10.309000015258789,-37.45800018310547z"></path></g><g opacity="1" transform="matrix(1,0,0,1,291.2669982910156,37.13999938964844)"><path fill="rgb(0,188,174)" fill-opacity="1" d=" M-217.60400390625,26.941999435424805 C-217.60400390625,26.941999435424805 -216.0290069580078,36.88999938964844 -216.0290069580078,36.88999938964844 C-216.0290069580078,36.88999938964844 217.60400390625,-36.88999938964844 217.60400390625,-36.88999938964844 C217.60400390625,-36.88999938964844 -217.60400390625,26.941999435424805 -217.60400390625,26.941999435424805z"></path></g><g opacity="1" transform="matrix(1,0,0,1,86.08799743652344,67.21199798583984)"><path fill="rgb(255,185,0)" fill-opacity="1" d=" M-3.944999933242798,-24.90999984741211 C-20.73699951171875,-22.25 -32.58300018310547,-8.942000389099121 -30.40399932861328,4.815999984741211 C-28.225000381469727,18.573999404907227 -12.845999717712402,27.56999969482422 3.946000099182129,24.910999298095703 C20.738000869750977,22.250999450683594 32.58300018310547,8.942999839782715 30.40399932861328,-4.815000057220459 C28.225000381469727,-18.572999954223633 12.847000122070312,-27.56999969482422 -3.944999933242798,-24.90999984741211z"></path></g><g opacity="1" transform="matrix(1,0,0,1,86.08799743652344,67.21299743652344)"><path fill="rgb(122,29,124)" fill-opacity="1" d=" M-2.6449999809265137,-16.69700050354004 C-13.72599983215332,-14.942000389099121 -21.524999618530273,-6.044000148773193 -20.06399917602539,3.177999973297119 C-18.604000091552734,12.39900016784668 -8.435999870300293,18.45199966430664 2.6449999809265137,16.69700050354004 C13.72599983215332,14.942000389099121 21.524999618530273,6.043000221252441 20.065000534057617,-3.177999973297119 C18.604000091552734,-12.39900016784668 8.435999870300293,-18.45199966430664 -2.6449999809265137,-16.69700050354004z"></path></g><g opacity="1" transform="matrix(1,0,0,1,272.5450134277344,44.35499954223633)"><path fill="rgb(0,188,174)" fill-opacity="1" d=" M-75.1259994506836,-28.676000595092773 C-31.93000030517578,-32.35900115966797 14.359999656677246,-35.23500061035156 57.69499969482422,-37.46200180053711 C57.69499969482422,-37.46200180053711 70.5739974975586,-32.58399963378906 72.8499984741211,-18.21299934387207 C75.1259994506836,-3.8410000801086426 64.38400268554688,4.771999835968018 64.38400268554688,4.771999835968018 C22.503000259399414,16.052000045776367 -22.392000198364258,27.607999801635742 -64.5999984741211,37.46200180053711 C-64.63099670410156,37.457000732421875 -64.6510009765625,37.459999084472656 -64.6510009765625,37.459999084472656 C-64.6510009765625,37.459999084472656 -48.979000091552734,25.347999572753906 -52.729000091552734,1.6740000247955322 C-56.47800064086914,-22 -75.1259994506836,-28.676000595092773 -75.1259994506836,-28.676000595092773z"></path></g><g opacity="1" transform="matrix(1,0,0,1,277.1549987792969,35.89799880981445)"><path fill="rgb(255,185,0)" fill-opacity="1" d=" M4.130000114440918,-15.869999885559082 C-9.071999549865723,-13.779000282287598 -27.54800033569336,5.414999961853027 -27.54800033569336,5.414999961853027 C-27.54800033569336,5.414999961853027 -4.044000148773193,17.959999084472656 9.156999588012695,15.869999885559082 C22.358999252319336,13.779000282287598 27.54800033569336,5.673999786376953 26.15999984741211,-3.0899999141693115 C24.770999908447266,-11.854999542236328 17.332000732421875,-17.961000442504883 4.130000114440918,-15.869999885559082z"></path></g><g opacity="1" transform="matrix(1,0,0,1,283.0429992675781,36.018001556396484)"><path fill="rgb(122,29,124)" fill-opacity="1" d=" M-1.5759999752044678,-9.946999549865723 C-9.383000373840332,-8.710000038146973 -15.006999969482422,-3.253999948501587 -14.13700008392334,2.240000009536743 C-13.267000198364258,7.732999801635742 -6.232999801635742,11.184000015258789 1.5750000476837158,9.946999549865723 C9.381999969482422,8.710000038146973 15.005999565124512,3.253999948501587 14.13599967956543,-2.240000009536743 C13.265999794006348,-7.732999801635742 6.230999946594238,-11.184000015258789 -1.5759999752044678,-9.946999549865723z"></path></g></g><g transform="matrix(-1.5746475458145142,0.9126253128051758,0.9126253128051758,1.5746475458145142,1180.5450439453125,9.380640983581543)" opacity="1" style="display: block;"><g opacity="1" transform="matrix(1,0,0,1,186.8679962158203,192.54400634765625)"><path fill="rgb(0,188,174)" fill-opacity="1" d=" M-73.75700378417969,-132.06900024414062 C-131.91600036621094,-192.29400634765625 -186.6179962158203,-139.468994140625 -128.45899963378906,-79.24400329589844 C-33.00299835205078,19.604000091552734 186.61900329589844,192.29400634765625 186.61900329589844,192.29400634765625 C186.61900329589844,192.29400634765625 21.698999404907227,-33.22200012207031 -73.75700378417969,-132.06900024414062z"></path></g><g opacity="1" transform="matrix(1,0,0,1,70.01699829101562,69.63300323486328)"><path fill="rgb(0,93,91)" fill-opacity="1" d=" M31.62700080871582,-20.892000198364258 C9.00100040435791,-44.321998596191406 -54.25299835205078,-55.22800064086914 -54.25299835205078,-55.22800064086914 C-54.25299835205078,-55.22800064086914 -45.560001373291016,8.369000434875488 -22.93400001525879,31.79800033569336 C-0.3089999854564667,55.22800064086914 22.72800064086914,54.63999938964844 37.79399871826172,40.09000015258789 C52.861000061035156,25.540000915527344 54.25299835205078,2.5380001068115234 31.62700080871582,-20.892000198364258z"></path></g><g opacity="1" transform="matrix(1,0,0,1,218.9080047607422,224.89300537109375)"><path fill="rgb(0,93,91)" fill-opacity="1" d=" M-147.3350067138672,-159.94500732421875 C-147.3350067138672,-159.94500732421875 -154.57899475097656,-152.94900512695312 -154.57899475097656,-152.94900512695312 C-154.57899475097656,-152.94900512695312 154.57899475097656,159.94500732421875 154.57899475097656,159.94500732421875 C154.57899475097656,159.94500732421875 -147.3350067138672,-159.94500732421875 -147.3350067138672,-159.94500732421875z"></path></g><g opacity="1" transform="matrix(1,0,0,1,76.13600158691406,76.9219970703125)"><path fill="rgb(255,185,0)" fill-opacity="1" d=" M18.14299964904785,-17.520000457763672 C6.333000183105469,-29.75 -11.36299991607666,-31.81999969482422 -21.382999420166016,-22.143999099731445 C-31.402999877929688,-12.468000411987305 -29.952999114990234,5.289999961853027 -18.14299964904785,17.520000457763672 C-6.333000183105469,29.75 11.364999771118164,31.81999969482422 21.384000778198242,22.143999099731445 C31.40399932861328,12.468000411987305 29.952999114990234,-5.289999961853027 18.14299964904785,-17.520000457763672z"></path></g><g opacity="1" transform="matrix(1,0,0,1,76.13600158691406,76.9219970703125)"><path fill="rgb(122,29,124)" fill-opacity="1" d=" M12.16100025177002,-11.744000434875488 C4.367000102996826,-19.81399917602539 -7.394999980926514,-21.099000930786133 -14.111000061035156,-14.61400032043457 C-20.82699966430664,-8.128000259399414 -19.952999114990234,3.671999931335449 -12.15999984741211,11.741999626159668 C-4.366000175476074,19.812999725341797 7.394999980926514,21.097999572753906 14.111000061035156,14.612000465393066 C20.82699966430664,8.12600040435791 19.95400047302246,-3.6740000247955322 12.16100025177002,-11.744000434875488z"></path></g><g opacity="1" transform="matrix(1,0,0,1,201.50900268554688,207.22300720214844)"><path fill="rgb(0,93,91)" fill-opacity="1" d=" M-19.302000045776367,-68.66100311279297 C8.491000175476074,-35.388999938964844 37.39799880981445,0.8790000081062317 64.0780029296875,35.099998474121094 C64.0780029296875,35.099998474121094 67.46900177001953,48.44599914550781 57.00199890136719,58.553001403808594 C46.53499984741211,68.66100311279297 33.319000244140625,64.8030014038086 33.319000244140625,64.8030014038086 C0.05700000002980232,36.965999603271484 -35.15999984741211,6.818999767303467 -67.44100189208984,-22.104000091552734 C-67.45500183105469,-22.131999969482422 -67.46900177001953,-22.14699935913086 -67.46900177001953,-22.14699935913086 C-67.46900177001953,-22.14699935913086 -48.558998107910156,-16.256000518798828 -31.316999435424805,-32.90599822998047 C-14.074999809265137,-49.555999755859375 -19.302000045776367,-68.66100311279297 -19.302000045776367,-68.66100311279297z"></path></g><g opacity="1" transform="matrix(1,0,0,1,213.58799743652344,218.85400390625)"><path fill="rgb(255,185,0)" fill-opacity="1" d=" M13.15999984741211,-9.098999977111816 C3.875,-18.714000701904297 -22.44499969482422,-22.839000701904297 -22.44499969482422,-22.839000701904297 C-22.44499969482422,-22.839000701904297 -19.240999221801758,3.6089999675750732 -9.956000328063965,13.223999977111816 C-0.6710000038146973,22.839000701904297 8.944999694824219,22.44099998474121 15.32800006866455,16.275999069213867 C21.711000442504883,10.112000465393066 22.44499969482422,0.515999972820282 13.15999984741211,-9.098999977111816z"></path></g><g opacity="1" transform="matrix(1,0,0,1,214.6580047607422,220.36500549316406)"><path fill="rgb(122,29,124)" fill-opacity="1" d=" M7.24399995803833,-6.995999813079834 C1.753000020980835,-12.682000160217285 -5.941999912261963,-14.15999984741211 -9.942999839782715,-10.295999526977539 C-13.942999839782715,-6.433000087738037 -12.734999656677246,1.309000015258789 -7.24399995803833,6.994999885559082 C-1.753000020980835,12.680999755859375 5.941999912261963,14.159000396728516 9.942000389099121,10.295000076293945 C13.942999839782715,6.432000160217285 12.734999656677246,-1.309999942779541 7.24399995803833,-6.995999813079834z"></path></g></g><g transform="matrix(-1.499957799911499,1.0307891368865967,1.0307891368865967,1.499957799911499,1404.8436279296875,114.78327178955078)" opacity="1" style="display: block;"><g opacity="1" transform="matrix(1,0,0,1,235.52099609375,118.87999725341797)"><path fill="rgb(0,188,174)" fill-opacity="1" d=" M-127.75499725341797,-84.5770034790039 C-204.24000549316406,-118.62999725341797 -235.1699981689453,-49.159000396728516 -158.68499755859375,-15.104999542236328 C-33.1510009765625,40.7859992980957 235.1699981689453,118.62899780273438 235.1699981689453,118.62899780273438 C235.1699981689453,118.62899780273438 -2.2209999561309814,-28.68600082397461 -127.75499725341797,-84.5770034790039z"></path></g><g opacity="1" transform="matrix(1,0,0,1,65.03500366210938,62.36600112915039)"><path fill="rgb(0,93,91)" fill-opacity="1" d=" M27.70400047302246,-34.645999908447266 C-2.0510001182556152,-47.89400100708008 -64.78500366210938,-34.31100082397461 -64.78500366210938,-34.31100082397461 C-64.78500366210938,-34.31100082397461 -32.902000427246094,21.398000717163086 -3.1470000743865967,34.645999908447266 C26.607999801635742,47.89400100708008 47.74700164794922,38.71900177001953 56.26599884033203,19.583999633789062 C64.78500366210938,0.44999998807907104 57.45899963378906,-21.398000717163086 27.70400047302246,-34.645999908447266z"></path></g><g opacity="1" transform="matrix(1,0,0,1,268.7619934082031,145.75999450683594)"><path fill="rgb(0,93,91)" fill-opacity="1" d=" M-197.83299255371094,-91.7490005493164 C-197.83299255371094,-91.7490005493164 -201.9290008544922,-82.54900360107422 -201.9290008544922,-82.54900360107422 C-201.9290008544922,-82.54900360107422 201.9290008544922,91.7490005493164 201.9290008544922,91.7490005493164 C201.9290008544922,91.7490005493164 -197.83299255371094,-91.7490005493164 -197.83299255371094,-91.7490005493164z"></path></g><g opacity="1" transform="matrix(1,0,0,1,79.64399719238281,63.40299987792969)"><path fill="rgb(255,185,0)" fill-opacity="1" d=" M10.258999824523926,-23.041000366210938 C-5.271999835968018,-29.95599937438965 -22.457000732421875,-25.2450008392334 -28.121999740600586,-12.520000457763672 C-33.78799819946289,0.20499999821186066 -25.790000915527344,16.125999450683594 -10.258999824523926,23.041000366210938 C5.2729997634887695,29.95599937438965 22.457000732421875,25.2450008392334 28.12299919128418,12.520000457763672 C33.78799819946289,-0.20499999821186066 25.790000915527344,-16.125999450683594 10.258999824523926,-23.041000366210938z"></path></g><g opacity="1" transform="matrix(1,0,0,1,79.64399719238281,63.40299987792969)"><path fill="rgb(122,29,124)" fill-opacity="1" d=" M6.875999927520752,-15.444000244140625 C-3.372999906539917,-20.006999969482422 -14.760000228881836,-16.791000366210938 -18.558000564575195,-8.26200008392334 C-22.354999542236328,0.2669999897480011 -17.125,10.880999565124512 -6.875999927520752,15.444000244140625 C3.372999906539917,20.006999969482422 14.76099967956543,16.79199981689453 18.558000564575195,8.262999534606934 C22.354999542236328,-0.26600000262260437 17.125,-10.880999565124512 6.875999927520752,-15.444000244140625z"></path></g><g opacity="1" transform="matrix(1,0,0,1,249.62600708007812,132.83700561523438)"><path fill="rgb(0,93,91)" fill-opacity="1" d=" M-48.542999267578125,-52.016998291015625 C-10.3100004196167,-31.57900047302246 30.07699966430664,-8.781000137329102 67.63400268554688,12.954000473022461 C67.63400268554688,12.954000473022461 75.77799987792969,24.058000564575195 69.85900115966797,37.35100173950195 C63.941001892089844,50.64400100708008 50.242000579833984,52.016998291015625 50.242000579833984,52.016998291015625 C8.973999977111816,38.667999267578125 -34.97100067138672,23.906999588012695 -75.73699951171875,9.184000015258789 C-75.76000213623047,9.161999702453613 -75.77799987792969,9.154000282287598 -75.77799987792969,9.154000282287598 C-75.77799987792969,9.154000282287598 -56.03799819946289,7.5320000648498535 -46.28900146484375,-14.364999771118164 C-36.540000915527344,-36.262001037597656 -48.542999267578125,-52.016998291015625 -48.542999267578125,-52.016998291015625z"></path></g><g opacity="1" transform="matrix(1,0,0,1,257.5320129394531,144.82200622558594)"><path fill="rgb(255,185,0)" fill-opacity="1" d=" M11.517999649047852,-14.678999900817871 C-0.6930000185966492,-20.114999771118164 -26.642000198364258,-14.079999923706055 -26.642000198364258,-14.079999923706055 C-26.642000198364258,-14.079999923706055 -13.762999534606934,9.241999626159668 -1.5529999732971191,14.678999900817871 C10.657999992370605,20.114999771118164 19.424999237060547,16.143999099731445 23.034000396728516,8.036999702453613 C26.64299964904785,-0.0689999982714653 23.729000091552734,-9.243000030517578 11.517999649047852,-14.678999900817871z"></path></g><g opacity="1" transform="matrix(1,0,0,1,261.8139953613281,144.51100158691406)"><path fill="rgb(122,29,124)" fill-opacity="1" d=" M4.0960001945495605,-9.199999809265137 C-3.125,-12.414999961853027 -10.812999725341797,-10.902999877929688 -13.074999809265137,-5.822000026702881 C-15.338000297546387,-0.7409999966621399 -11.317000389099121,5.985000133514404 -4.0960001945495605,9.199999809265137 C3.125,12.414999961853027 10.812999725341797,10.902000427246094 13.074999809265137,5.821000099182129 C15.338000297546387,0.7400000095367432 11.317000389099121,-5.985000133514404 4.0960001945495605,-9.199999809265137z"></path></g></g><g transform="matrix(-1.4164191484451294,1.1428718566894531,1.1428718566894531,1.4164191484451294,1609.383056640625,288.96600341796875)" opacity="1" style="display: block;"><g opacity="1" transform="matrix(1,0,0,1,265.42401123046875,42.108001708984375)"><path fill="rgb(0,188,174)" fill-opacity="1" d=" M-163.1479949951172,-38.93600082397461 C-246.82000732421875,-41.858001708984375 -249.4739990234375,34.14099884033203 -165.802001953125,37.0629997253418 C-28.472000122070312,41.858001708984375 249.4739990234375,13.519000053405762 249.4739990234375,13.519000053405762 C249.4739990234375,13.519000053405762 -25.81800079345703,-34.13999938964844 -163.1479949951172,-38.93600082397461z"></path></g><g opacity="1" transform="matrix(1,0,0,1,66.8280029296875,40.5989990234375)"><path fill="rgb(0,93,91)" fill-opacity="1" d=" M19.049999237060547,-37.902000427246094 C-13.50100040435791,-39.03900146484375 -66.5780029296875,-2.943000078201294 -66.5780029296875,-2.943000078201294 C-66.5780029296875,-2.943000078201294 -16.148000717163086,36.76499938964844 16.402999877929688,37.902000427246094 C48.95399856567383,39.03900146484375 65.11599731445312,22.61199951171875 65.84700012207031,1.6799999475479126 C66.5780029296875,-19.25200080871582 51.60100173950195,-36.76499938964844 19.049999237060547,-37.902000427246094z"></path></g><g opacity="1" transform="matrix(1,0,0,1,295.0249938964844,45.435001373291016)"><path fill="rgb(0,93,91)" fill-opacity="1" d=" M-219.52099609375,-10.190999984741211 C-219.52099609375,-10.190999984741211 -219.8719940185547,-0.12700000405311584 -219.8719940185547,-0.12700000405311584 C-219.8719940185547,-0.12700000405311584 219.8719940185547,10.190999984741211 219.8719940185547,10.190999984741211 C219.8719940185547,10.190999984741211 -219.52099609375,-10.190999984741211 -219.52099609375,-10.190999984741211z"></path></g><g opacity="1" transform="matrix(1,0,0,1,87.10399627685547,40.6879997253418)"><path fill="rgb(255,185,0)" fill-opacity="1" d=" M0.8809999823570251,-25.20599937438965 C-16.110000610351562,-25.798999786376953 -30.277000427246094,-14.994999885559082 -30.763999938964844,-1.0750000476837158 C-31.25,12.845999717712402 -17.871000289916992,24.61199951171875 -0.8799999952316284,25.204999923706055 C16.110000610351562,25.798999786376953 30.277999877929688,14.994999885559082 30.763999938964844,1.0740000009536743 C31.25,-12.847000122070312 17.871999740600586,-24.613000869750977 0.8809999823570251,-25.20599937438965z"></path></g><g opacity="1" transform="matrix(1,0,0,1,87.10399627685547,40.6879997253418)"><path fill="rgb(122,29,124)" fill-opacity="1" d=" M0.5899999737739563,-16.895000457763672 C-10.621999740600586,-17.28700065612793 -19.97599983215332,-10.038999557495117 -20.302000045776367,-0.7080000042915344 C-20.628000259399414,8.621999740600586 -11.802000045776367,16.503999710083008 -0.5899999737739563,16.895000457763672 C10.621999740600586,17.28700065612793 19.97599983215332,10.039999961853027 20.302000045776367,0.7099999785423279 C20.628000259399414,-8.621000289916992 11.802000045776367,-16.503000259399414 0.5899999737739563,-16.895000457763672z"></path></g><g opacity="1" transform="matrix(1,0,0,1,276.9389953613281,44.810001373291016)"><path fill="rgb(0,93,91)" fill-opacity="1" d=" M-70.71499633789062,-33.46500015258789 C-27.610000610351562,-28.83799934387207 18.378000259399414,-22.82900047302246 61.34199905395508,-16.746000289916992 C61.34199905395508,-16.746000289916992 73.052001953125,-9.50100040435791 72.54499816894531,5.040999889373779 C72.03700256347656,19.58300018310547 59.849998474121094,25.988000869750977 59.849998474121094,25.988000869750977 C16.586000442504883,29.06999969482422 -29.68899917602539,31.84600067138672 -73.00199890136719,33.46500015258789 C-73.03199768066406,33.45399856567383 -73.052001953125,33.45399856567383 -73.052001953125,33.45399856567383 C-73.052001953125,33.45399856567383 -55.356998443603516,24.55500030517578 -54.52000045776367,0.6010000109672546 C-53.683998107910156,-23.35300064086914 -70.71499633789062,-33.46500015258789 -70.71499633789062,-33.46500015258789z"></path></g><g opacity="1" transform="matrix(1,0,0,1,279.88800048828125,47.67399978637695)"><path fill="rgb(255,185,0)" fill-opacity="1" d=" M7.830999851226807,-16.058000564575195 C-5.5269999504089355,-16.52400016784668 -27.32699966430664,-1.2079999446868896 -27.32699966430664,-1.2079999446868896 C-27.32699966430664,-1.2079999446868896 -6.6479997634887695,15.590999603271484 6.710000038146973,16.058000564575195 C20.066999435424805,16.52400016784668 26.707000732421875,9.557999610900879 27.017000198364258,0.6890000104904175 C27.326000213623047,-8.178999900817871 21.18899917602539,-15.592000007629395 7.830999851226807,-16.058000564575195z"></path></g><g opacity="1" transform="matrix(1,0,0,1,286.3919982910156,47.64699935913086)"><path fill="rgb(122,29,124)" fill-opacity="1" d=" M0.35199999809265137,-10.0649995803833 C-7.547999858856201,-10.340999603271484 -14.109000205993652,-6.059000015258789 -14.303999900817871,-0.5 C-14.498000144958496,5.058000087738037 -8.25100040435791,9.788000106811523 -0.35100001096725464,10.064000129699707 C7.548999786376953,10.34000015258789 14.111000061035156,6.057000160217285 14.305000305175781,0.49900001287460327 C14.49899959564209,-5.059999942779541 8.251999855041504,-9.788999557495117 0.35199999809265137,-10.0649995803833z"></path></g></g><g transform="matrix(1.7280664443969727,0.5711272358894348,-0.5711272358894348,1.7280664443969727,1003.3821411132812,6.528083801269531)" opacity="1" style="display: block;"><g opacity="1" transform="matrix(1,0,0,1,66.41600036621094,257.7349853515625)"><path fill="rgb(0,93,91)" fill-opacity="1" d=" M24.457000732421875,-165.8300018310547 C8.482000350952148,-248.01499938964844 -66.16600036621094,-233.5050048828125 -50.191001892089844,-151.32000732421875 C-23.97100067138672,-16.430999755859375 66.16600036621094,248.01499938964844 66.16600036621094,248.01499938964844 C66.16600036621094,248.01499938964844 50.676998138427734,-30.94099998474121 24.457000732421875,-165.8300018310547z"></path></g><g opacity="1" transform="matrix(1,0,0,1,50.41899871826172,67.28500366210938)"><path fill="rgb(0,188,174)" fill-opacity="1" d=" M37.22800064086914,8.53499984741211 C31.01300048828125,-23.437000274658203 -16.09600067138672,-67.03399658203125 -16.09600067138672,-67.03399658203125 C-16.09600067138672,-67.03399658203125 -43.44300079345703,-8.96500015258789 -37.229000091552734,23.007999420166016 C-31.013999938964844,54.97999954223633 -11.373000144958496,67.03399658203125 9.187999725341797,63.0369987487793 C29.74799919128418,59.040000915527344 43.44300079345703,40.50699996948242 37.22800064086914,8.53499984741211z"></path></g><g opacity="1" transform="matrix(1,0,0,1,88.14900207519531,289.3919982910156)"><path fill="rgb(0,188,174)" fill-opacity="1" d=" M-34.54800033569336,-216.35800170898438 C-34.54800033569336,-216.35800170898438 -44.43299865722656,-214.43600463867188 -44.43299865722656,-214.43600463867188 C-44.43299865722656,-214.43600463867188 44.43299865722656,216.35899353027344 44.43299865722656,216.35899353027344 C44.43299865722656,216.35899353027344 -34.54800033569336,-216.35800170898438 -34.54800033569336,-216.35800170898438z"></path></g><g opacity="1" transform="matrix(1,0,0,1,50.90599822998047,85.56099700927734)"><path fill="rgb(255,185,0)" fill-opacity="1" d=" M24.757999420166016,-4.813000202178955 C21.513999938964844,-21.50200080871582 7.798999786376953,-32.875 -5.874000072479248,-30.216999053955078 C-19.54800033569336,-27.55900001525879 -28.00200080871582,-11.876999855041504 -24.757999420166016,4.811999797821045 C-21.513999938964844,21.500999450683594 -7.798999786376953,32.875 5.874000072479248,30.216999053955078 C19.547000885009766,27.55900001525879 28.00200080871582,11.87600040435791 24.757999420166016,-4.813000202178955z"></path></g><g opacity="1" transform="matrix(1,0,0,1,50.90599822998047,85.56099700927734)"><path fill="rgb(122,29,124)" fill-opacity="1" d=" M16.594999313354492,-3.2260000705718994 C14.454000473022461,-14.23900032043457 5.289000034332275,-21.722999572753906 -3.875999927520752,-19.94099998474121 C-13.039999961853027,-18.15999984741211 -18.736000061035156,-7.788000106811523 -16.594999313354492,3.2249999046325684 C-14.454000473022461,14.23799991607666 -5.289000034332275,21.722000122070312 3.875999927520752,19.94099998474121 C13.041000366210938,18.159000396728516 18.736000061035156,7.7870001792907715 16.594999313354492,-3.2260000705718994z"></path></g><g opacity="1" transform="matrix(1,0,0,1,80.13600158691406,270.5400085449219)"><path fill="rgb(0,188,174)" fill-opacity="1" d=" M26.156999588012695,-75.51300048828125 C31.344999313354492,-32.47200012207031 35.834999084472656,13.689000129699707 39.573001861572266,56.91999816894531 C39.573001861572266,56.91999816894531 35.14799880981445,69.95999908447266 20.86400032043457,72.73699951171875 C6.580999851226807,75.51300048828125 -2.4010000228881836,65.0790023803711 -2.4010000228881836,65.0790023803711 C-15.13700008392334,23.617000579833984 -28.25200080871582,-20.847000122070312 -39.573001861572266,-62.685001373291016 C-39.569000244140625,-62.71699905395508 -39.573001861572266,-62.736000061035156 -39.573001861572266,-62.736000061035156 C-39.573001861572266,-62.736000061035156 -26.92099952697754,-47.49700164794922 -3.3929998874664307,-52.06999969482422 C20.13599967956543,-56.64400100708008 26.156999588012695,-75.51300048828125 26.156999588012695,-75.51300048828125z"></path></g><g opacity="1" transform="matrix(1,0,0,1,89.10099792480469,275.6130065917969)"><path fill="rgb(255,185,0)" fill-opacity="1" d=" M15.77299976348877,3.380000114440918 C13.222999572753906,-9.739999771118164 -6.605999946594238,-27.53499984741211 -6.605999946594238,-27.53499984741211 C-6.605999946594238,-27.53499984741211 -18.322999954223633,-3.6089999675750732 -15.77299976348877,9.51200008392334 C-13.222000122070312,22.631999969482422 -4.940999984741211,27.53499984741211 3.7699999809265137,25.841999053955078 C12.480999946594238,24.14900016784668 18.322999954223633,16.500999450683594 15.77299976348877,3.380000114440918z"></path></g><g opacity="1" transform="matrix(1,0,0,1,88.95500183105469,281.3070068359375)"><path fill="rgb(122,29,124)" fill-opacity="1" d=" M9.88599967956543,-1.9220000505447388 C8.378000259399414,-9.682000160217285 2.7279999256134033,-15.112000465393066 -2.7309999465942383,-14.050000190734863 C-8.190999984741211,-12.98900032043457 -11.394000053405762,-5.8379998207092285 -9.88599967956543,1.9210000038146973 C-8.378000259399414,9.680999755859375 -2.7290000915527344,15.111000061035156 2.7309999465942383,14.048999786376953 C8.1899995803833,12.98799991607666 11.394000053405762,5.8379998207092285 9.88599967956543,-1.9220000505447388z"></path></g></g><g transform="matrix(1.7280664443969727,0.5711272358894348,-0.5711272358894348,1.7280664443969727,669.9448852539062,25.13357925415039)" opacity="1" style="display: block;"><g opacity="1" transform="matrix(1,0,0,1,151.78799438476562,219.4010009765625)"><path fill="rgb(0,93,91)" fill-opacity="1" d=" M-42.1619987487793,-148.93499755859375 C-87.76100158691406,-219.1510009765625 -151.53799438476562,-177.73399353027344 -105.93900299072266,-107.51799774169922 C-31.097999572753906,7.7270002365112305 151.53799438476562,219.1510009765625 151.53799438476562,219.1510009765625 C151.53799438476562,219.1510009765625 32.67900085449219,-33.689998626708984 -42.1619987487793,-148.93499755859375z"></path></g><g opacity="1" transform="matrix(1,0,0,1,68.802001953125,67.93699645996094)"><path fill="rgb(0,188,174)" fill-opacity="1" d=" M31.80699920654297,-11.177000045776367 C14.067999839782715,-38.49300003051758 -45.94300079345703,-61.268001556396484 -45.94300079345703,-61.268001556396484 C-45.94300079345703,-61.268001556396484 -49.54600143432617,2.818000078201294 -31.80699920654297,30.134000778198242 C-14.067000389099121,57.45100021362305 8.659000396728516,61.26900100708008 26.225000381469727,49.861000061035156 C43.79100036621094,38.45399856567383 49.54600143432617,16.138999938964844 31.80699920654297,-11.177000045776367z"></path></g><g opacity="1" transform="matrix(1,0,0,1,181.43899536132812,252.74200439453125)"><path fill="rgb(0,188,174)" fill-opacity="1" d=" M-113.44100189208984,-185.81100463867188 C-113.44100189208984,-185.81100463867188 -121.88700103759766,-180.3249969482422 -121.88700103759766,-180.3249969482422 C-121.88700103759766,-180.3249969482422 121.88800048828125,185.81100463867188 121.88800048828125,185.81100463867188 C121.88800048828125,185.81100463867188 -113.44100189208984,-185.81100463867188 -113.44100189208984,-185.81100463867188z"></path></g><g opacity="1" transform="matrix(1,0,0,1,70.19200134277344,79.55599975585938)"><path fill="rgb(255,185,0)" fill-opacity="1" d=" M21.152999877929688,-13.737000465393066 C11.894000053405762,-27.9950008392334 -5.083000183105469,-33.40399932861328 -16.764999389648438,-25.81800079345703 C-28.44700050354004,-18.231000900268555 -30.410999298095703,-0.5220000147819519 -21.150999069213867,13.737000465393066 C-11.892000198364258,27.9950008392334 5.085000038146973,33.40399932861328 16.767000198364258,25.816999435424805 C28.448999404907227,18.231000900268555 30.41200065612793,0.5210000276565552 21.152999877929688,-13.737000465393066z"></path></g><g opacity="1" transform="matrix(1,0,0,1,70.19200134277344,79.55599975585938)"><path fill="rgb(122,29,124)" fill-opacity="1" d=" M14.178000450134277,-9.206999778747559 C8.067999839782715,-18.615999221801758 -3.2330000400543213,-22.121999740600586 -11.064000129699707,-17.03700065612793 C-18.893999099731445,-11.95199966430664 -20.288000106811523,-0.20200000703334808 -14.177000045776367,9.206999778747559 C-8.067000389099121,18.615999221801758 3.2339999675750732,22.121999740600586 11.064000129699707,17.03700065612793 C18.893999099731445,11.95199966430664 20.288000106811523,0.20200000703334808 14.178000450134277,-9.206999778747559z"></path></g><g opacity="1" transform="matrix(1,0,0,1,165.88999938964844,233.98300170898438)"><path fill="rgb(0,188,174)" fill-opacity="1" d=" M-3.3369998931884766,-73.68099975585938 C17.597000122070312,-35.71799850463867 39.051998138427734,5.400000095367432 58.71200180053711,44.08300018310547 C58.71200180053711,44.08300018310547 59.49399948120117,57.832000732421875 47.29100036621094,65.75599670410156 C35.0880012512207,73.68099975585938 22.85099983215332,67.37200164794922 22.85099983215332,67.37200164794922 C-4.488999843597412,33.70000076293945 -33.305999755859375,-2.61299991607666 -59.47600173950195,-37.165000915527344 C-59.48400115966797,-37.19499969482422 -59.49399948120117,-37.21200180053711 -59.49399948120117,-37.21200180053711 C-59.49399948120117,-37.21200180053711 -42.05500030517578,-27.820999145507812 -21.952999114990234,-40.875999450683594 C-1.8509999513626099,-53.93000030517578 -3.3369998931884766,-73.68099975585938 -3.3369998931884766,-73.68099975585938z"></path></g><g opacity="1" transform="matrix(1,0,0,1,179.21600341796875,243.62399291992188)"><path fill="rgb(255,185,0)" fill-opacity="1" d=" M13.475000381469727,-4.938000202178955 C6.195000171661377,-16.148000717163086 -18.854000091552734,-25.218000411987305 -18.854000091552734,-25.218000411987305 C-18.854000091552734,-25.218000411987305 -20.7549991607666,1.3539999723434448 -13.47599983215332,12.564000129699707 C-6.196000099182129,23.77400016784668 3.319000005722046,25.218000411987305 10.76099967956543,20.385000228881836 C18.20400047302246,15.552000045776367 20.7549991607666,6.271999835968018 13.475000381469727,-4.938000202178955z"></path></g><g opacity="1" transform="matrix(1,0,0,1,178.79800415039062,246.7949981689453)"><path fill="rgb(122,29,124)" fill-opacity="1" d=" M8.446000099182129,-5.485000133514404 C4.140999794006348,-12.114999771118164 -3.13100004196167,-15.032999992370605 -7.795000076293945,-12.003999710083008 C-12.460000038146973,-8.975000381469727 -12.75100040435791,-1.1449999809265137 -8.446000099182129,5.485000133514404 C-4.139999866485596,12.11400032043457 3.13100004196167,15.032999992370605 7.795000076293945,12.003000259399414 C12.460000038146973,8.973999977111816 12.75100040435791,1.1440000534057617 8.446000099182129,-5.485000133514404z"></path></g></g><g transform="matrix(1.6509332656860352,0.7660408020019531,-0.7660408020019531,1.6509332656860352,476.6822204589844,103.53744506835938)" opacity="1" style="display: block;"><g opacity="1" transform="matrix(1,0,0,1,215.0919952392578,158.6219940185547)"><path fill="rgb(0,93,91)" fill-opacity="1" d=" M-102.64199829101562,-110.3499984741211 C-171.2239990234375,-158.3719940185547 -214.8419952392578,-96.0790023803711 -146.25999450683594,-48.05799865722656 C-33.696998596191406,30.760000228881836 214.8419952392578,158.3719940185547 214.8419952392578,158.3719940185547 C214.8419952392578,158.3719940185547 9.920999526977539,-31.533000946044922 -102.64199829101562,-110.3499984741211z"></path></g><g opacity="1" transform="matrix(1,0,0,1,68.37999725341797,70.00900268554688)"><path fill="rgb(0,188,174)" fill-opacity="1" d=" M30.575000762939453,-31.06599998474121 C3.8949999809265137,-49.74800109863281 -60.27799987792969,-48.3849983215332 -60.27799987792969,-48.3849983215332 C-60.27799987792969,-48.3849983215332 -39.611000061035156,12.383999824523926 -12.930000305175781,31.06599998474121 C13.75,49.74800109863281 36.250999450683594,44.775001525878906 48.26499938964844,27.618000030517578 C60.27799987792969,10.461000442504883 57.255001068115234,-12.383999824523926 30.575000762939453,-31.06599998474121z"></path></g><g opacity="1" transform="matrix(1,0,0,1,248.34300231933594,188.79200744628906)"><path fill="rgb(0,188,174)" fill-opacity="1" d=" M-175.81399536132812,-128.20199584960938 C-175.81399536132812,-128.20199584960938 -181.58999633789062,-119.9530029296875 -181.58999633789062,-119.9530029296875 C-181.58999633789062,-119.9530029296875 181.58999633789062,128.20199584960938 181.58999633789062,128.20199584960938 C181.58999633789062,128.20199584960938 -175.81399536132812,-128.20199584960938 -175.81399536132812,-128.20199584960938z"></path></g><g opacity="1" transform="matrix(1,0,0,1,79.29199981689453,71.47200012207031)"><path fill="rgb(255,185,0)" fill-opacity="1" d=" M14.467000007629395,-20.65999984741211 C0.5410000085830688,-30.410999298095703 -17.22599983215332,-29.066999435424805 -25.21500015258789,-17.656999588012695 C-33.20500183105469,-6.247000217437744 -28.392000198364258,10.907999992370605 -14.46500015258789,20.65999984741211 C-0.5389999747276306,30.410999298095703 17.226999282836914,29.06599998474121 25.216999053955078,17.6560001373291 C33.20600128173828,6.245999813079834 28.39299964904785,-10.909000396728516 14.467000007629395,-20.65999984741211z"></path></g><g opacity="1" transform="matrix(1,0,0,1,79.29299926757812,71.47200012207031)"><path fill="rgb(122,29,124)" fill-opacity="1" d=" M9.696999549865723,-13.847999572753906 C0.5070000290870667,-20.283000946044922 -11.28600025177002,-19.299999237060547 -16.641000747680664,-11.652000427246094 C-21.996000289916992,-4.004000186920166 -18.886999130249023,7.4120001792907715 -9.696999549865723,13.847999572753906 C-0.5059999823570251,20.283000946044922 11.28499984741211,19.298999786376953 16.639999389648438,11.652000427246094 C21.9950008392334,4.004000186920166 18.886999130249023,-7.413000106811523 9.696999549865723,-13.847999572753906z"></path></g><g opacity="1" transform="matrix(1,0,0,1,229.73399353027344,172.85899353027344)"><path fill="rgb(0,188,174)" fill-opacity="1" d=" M-34.55699920654297,-61.11899948120117 C-0.9259999990463257,-33.762001037597656 34.369998931884766,-3.674999952316284 67.08899688720703,24.826000213623047 C67.08899688720703,24.826000213623047 72.96399688720703,37.279998779296875 64.61799621582031,49.20000076293945 C56.27199935913086,61.11899948120117 42.5620002746582,59.85300064086914 42.5620002746582,59.85300064086914 C4.599999904632568,38.875 -35.72100067138672,16 -72.9280014038086,-6.23199987411499 C-72.9469985961914,-6.256999969482422 -72.96499633789062,-6.269000053405762 -72.96499633789062,-6.269000053405762 C-72.96499633789062,-6.269000053405762 -53.27799987792969,-4.093999862670898 -39.529998779296875,-23.729000091552734 C-25.781999588012695,-43.362998962402344 -34.55699920654297,-61.11899948120117 -34.55699920654297,-61.11899948120117z"></path></g><g opacity="1" transform="matrix(1,0,0,1,239.7259979248047,186.28799438476562)"><path fill="rgb(255,185,0)" fill-opacity="1" d=" M12.756999969482422,-13.161999702453613 C1.8079999685287476,-20.827999114990234 -24.816999435424805,-19.856000900268555 -24.816999435424805,-19.856000900268555 C-24.816999435424805,-19.856000900268555 -16.624000549316406,5.494999885559082 -5.675000190734863,13.161999702453613 C5.27400016784668,20.827999114990234 14.63599967956543,18.601999282836914 19.72599983215332,11.333000183105469 C24.81599998474121,4.064000129699707 23.70599937438965,-5.495999813079834 12.756999969482422,-13.161999702453613z"></path></g><g opacity="1" transform="matrix(1,0,0,1,242.63900756835938,185.8489990234375)"><path fill="rgb(122,29,124)" fill-opacity="1" d=" M5.7769999504089355,-8.25 C-0.6980000138282776,-12.784000396728516 -8.532999992370605,-12.765999794006348 -11.723999977111816,-8.210000038146973 C-14.913999557495117,-3.6540000438690186 -12.25100040435791,3.7160000801086426 -5.775000095367432,8.25 C0.699999988079071,12.784000396728516 8.53499984741211,12.765999794006348 11.725000381469727,8.210000038146973 C14.914999961853027,3.6540000438690186 12.251999855041504,-3.7160000801086426 5.7769999504089355,-8.25z"></path></g></g><g transform="matrix(1.5872691869735718,0.8904920816421509,-0.8904920816421509,1.5872691869735718,279.7735290527344,272.19073486328125)" opacity="1" style="display: block;"><g opacity="1" transform="matrix(1,0,0,1,255.15499877929688,74.77899932861328)"><path fill="rgb(0,93,91)" fill-opacity="1" d=" M-148.17300415039062,-55.69499969482422 C-229.75,-74.52899932861328 -246.85699462890625,-0.4320000112056732 -165.2790069580078,18.402000427246094 C-31.386999130249023,49.3129997253418 246.85699462890625,74.52899932861328 246.85699462890625,74.52899932861328 C246.85699462890625,74.52899932861328 -14.281000137329102,-24.784000396728516 -148.17300415039062,-55.69499969482422z"></path></g><g opacity="1" transform="matrix(1,0,0,1,67.16100311279297,52.44200134277344)"><path fill="rgb(0,188,174)" fill-opacity="1" d=" M23.81399917602539,-36.952999114990234 C-7.921999931335449,-44.279998779296875 -66.91100311279297,-18.975000381469727 -66.91100311279297,-18.975000381469727 C-66.91100311279297,-18.975000381469727 -24.983999252319336,29.625 6.751999855041504,36.95199966430664 C38.487998962402344,44.27899932861328 57.48699951171875,31.239999771118164 62.19900131225586,10.831999778747559 C66.91100311279297,-9.576000213623047 55.54999923706055,-29.625999450683594 23.81399917602539,-36.952999114990234z"></path></g><g opacity="1" transform="matrix(1,0,0,1,287.1650085449219,97.38300323486328)"><path fill="rgb(0,188,174)" fill-opacity="1" d=" M-212.58299255371094,-51.92399978637695 C-212.58299255371094,-51.92399978637695 -214.84800720214844,-42.11199951171875 -214.84800720214844,-42.11199951171875 C-214.84800720214844,-42.11199951171875 214.84800720214844,51.92399978637695 214.84800720214844,51.92399978637695 C214.84800720214844,51.92399978637695 -212.58299255371094,-51.92399978637695 -212.58299255371094,-51.92399978637695z"></path></g><g opacity="1" transform="matrix(1,0,0,1,84.93000030517578,53.01599884033203)"><path fill="rgb(255,185,0)" fill-opacity="1" d=" M5.673999786376953,-24.575000762939453 C-10.890999794006348,-28.39900016784668 -26.860000610351562,-20.496999740600586 -29.993999481201172,-6.925000190734863 C-33.12699890136719,6.646999835968018 -22.238000869750977,20.75 -5.672999858856201,24.573999404907227 C10.892000198364258,28.39900016784668 26.861000061035156,20.496000289916992 29.9950008392334,6.923999786376953 C33.12799835205078,-6.6479997634887695 22.23900032043457,-20.750999450683594 5.673999786376953,-24.575000762939453z"></path></g><g opacity="1" transform="matrix(1,0,0,1,84.93000030517578,53.01499938964844)"><path fill="rgb(122,29,124)" fill-opacity="1" d=" M3.802999973297119,-16.472000122070312 C-7.129000186920166,-18.996000289916992 -17.69300079345703,-13.666999816894531 -19.792999267578125,-4.570000171661377 C-21.893999099731445,4.5269999504089355 -14.734000205993652,13.949000358581543 -3.802999973297119,16.472000122070312 C7.129000186920166,18.996000289916992 17.69300079345703,13.666999816894531 19.79400062561035,4.570000171661377 C21.893999099731445,-4.5269999504089355 14.734999656677246,-13.947999954223633 3.802999973297119,-16.472000122070312z"></path></g><g opacity="1" transform="matrix(1,0,0,1,268.2049865722656,88.5770034790039)"><path fill="rgb(0,188,174)" fill-opacity="1" d=" M-60.744998931884766,-41.637001037597656 C-19.315000534057617,-28.8700008392334 24.68199920654297,-14.196000099182129 65.69599914550781,-0.027000000700354576 C65.69599914550781,-0.027000000700354576 75.80799865722656,9.319000244140625 72.53500366210938,23.496999740600586 C69.26200103759766,37.67399978637695 56.07699966430664,41.637001037597656 56.07699966430664,41.637001037597656 C13.020000457763672,36.40800094604492 -32.935001373291016,30.304000854492188 -75.76100158691406,23.628999710083008 C-75.78800201416016,23.61199951171875 -75.80799865722656,23.607999801635742 -75.80799865722656,23.607999801635742 C-75.80799865722656,23.607999801635742 -56.7400016784668,18.24799919128418 -51.347999572753906,-5.10699987411499 C-45.95600128173828,-28.461000442504883 -60.744998931884766,-41.637001037597656 -60.744998931884766,-41.637001037597656z"></path></g><g opacity="1" transform="matrix(1,0,0,1,273.7349853515625,98.04499816894531)"><path fill="rgb(255,185,0)" fill-opacity="1" d=" M9.854000091552734,-15.656000137329102 C-3.1700000762939453,-18.663000106811523 -27.489999771118164,-7.785999774932861 -27.489999771118164,-7.785999774932861 C-27.489999771118164,-7.785999774932861 -10.39799976348877,12.64900016784668 2.625,15.656000137329102 C15.64900016784668,18.66200065612793 23.496000289916992,13.090999603271484 25.493000030517578,4.445000171661377 C27.48900032043457,-4.202000141143799 22.87700080871582,-12.64900016784668 9.854000091552734,-15.656000137329102z"></path></g><g opacity="1" transform="matrix(1,0,0,1,279.22900390625,97.87300109863281)"><path fill="rgb(122,29,124)" fill-opacity="1" d=" M2.265000104904175,-9.812999725341797 C-5.436999797821045,-11.590999603271484 -12.694999694824219,-8.638999938964844 -13.946000099182129,-3.2190001010894775 C-15.196999549865723,2.200000047683716 -9.968000411987305,8.034000396728516 -2.2660000324249268,9.812000274658203 C5.435999870300293,11.59000015258789 12.694000244140625,8.637999534606934 13.946000099182129,3.2190001010894775 C15.196999549865723,-2.200000047683716 9.967000007629395,-8.03499984741211 2.265000104904175,-9.812999725341797z"></path></g></g><g transform="matrix(1.5142409801483154,1.0096899271011353,-1.0096899271011353,1.5142409801483154,173.34413146972656,442.0383605957031)" opacity="1" style="display: block;"><g opacity="1" transform="matrix(1,0,0,1,260.00201416015625,57.9739990234375)"><path fill="rgb(0,93,91)" fill-opacity="1" d=" M-166.17799377441406,-30.482999801635742 C-248.8699951171875,-17.38599967956543 -236.97500610351562,57.7239990234375 -154.2830047607422,44.62699890136719 C-18.56100082397461,23.1299991607666 248.8699951171875,-57.7239990234375 248.8699951171875,-57.7239990234375 C248.8699951171875,-57.7239990234375 -30.45599937438965,-51.979000091552734 -166.17799377441406,-30.482999801635742z"></path></g><g opacity="1" transform="matrix(1,0,0,1,67.32599639892578,67.61199951171875)"><path fill="rgb(0,188,174)" fill-opacity="1" d=" M10.309000015258789,-37.45800018310547 C-21.861000061035156,-32.362998962402344 -67.07599639892578,13.196000099182129 -67.07599639892578,13.196000099182129 C-67.07599639892578,13.196000099182129 -9.994999885559082,42.553001403808594 22.173999786376953,37.457000732421875 C54.34400177001953,32.36199951171875 67.07599639892578,13.154999732971191 63.79899978637695,-7.5329999923706055 C60.52299880981445,-28.219999313354492 42.479000091552734,-42.553001403808594 10.309000015258789,-37.45800018310547z"></path></g><g opacity="1" transform="matrix(1,0,0,1,291.2669982910156,37.13999938964844)"><path fill="rgb(0,188,174)" fill-opacity="1" d=" M-217.60400390625,26.941999435424805 C-217.60400390625,26.941999435424805 -216.0290069580078,36.88999938964844 -216.0290069580078,36.88999938964844 C-216.0290069580078,36.88999938964844 217.60400390625,-36.88999938964844 217.60400390625,-36.88999938964844 C217.60400390625,-36.88999938964844 -217.60400390625,26.941999435424805 -217.60400390625,26.941999435424805z"></path></g><g opacity="1" transform="matrix(1,0,0,1,86.08799743652344,67.21199798583984)"><path fill="rgb(255,185,0)" fill-opacity="1" d=" M-3.944999933242798,-24.90999984741211 C-20.73699951171875,-22.25 -32.58300018310547,-8.942000389099121 -30.40399932861328,4.815999984741211 C-28.225000381469727,18.573999404907227 -12.845999717712402,27.56999969482422 3.946000099182129,24.910999298095703 C20.738000869750977,22.250999450683594 32.58300018310547,8.942999839782715 30.40399932861328,-4.815000057220459 C28.225000381469727,-18.572999954223633 12.847000122070312,-27.56999969482422 -3.944999933242798,-24.90999984741211z"></path></g><g opacity="1" transform="matrix(1,0,0,1,86.08799743652344,67.21299743652344)"><path fill="rgb(122,29,124)" fill-opacity="1" d=" M-2.6449999809265137,-16.69700050354004 C-13.72599983215332,-14.942000389099121 -21.524999618530273,-6.044000148773193 -20.06399917602539,3.177999973297119 C-18.604000091552734,12.39900016784668 -8.435999870300293,18.45199966430664 2.6449999809265137,16.69700050354004 C13.72599983215332,14.942000389099121 21.524999618530273,6.043000221252441 20.065000534057617,-3.177999973297119 C18.604000091552734,-12.39900016784668 8.435999870300293,-18.45199966430664 -2.6449999809265137,-16.69700050354004z"></path></g><g opacity="1" transform="matrix(1,0,0,1,272.5450134277344,44.35499954223633)"><path fill="rgb(0,188,174)" fill-opacity="1" d=" M-75.1259994506836,-28.676000595092773 C-31.93000030517578,-32.35900115966797 14.359999656677246,-35.23500061035156 57.69499969482422,-37.46200180053711 C57.69499969482422,-37.46200180053711 70.5739974975586,-32.58399963378906 72.8499984741211,-18.21299934387207 C75.1259994506836,-3.8410000801086426 64.38400268554688,4.771999835968018 64.38400268554688,4.771999835968018 C22.503000259399414,16.052000045776367 -22.392000198364258,27.607999801635742 -64.5999984741211,37.46200180053711 C-64.63099670410156,37.457000732421875 -64.6510009765625,37.459999084472656 -64.6510009765625,37.459999084472656 C-64.6510009765625,37.459999084472656 -48.979000091552734,25.347999572753906 -52.729000091552734,1.6740000247955322 C-56.47800064086914,-22 -75.1259994506836,-28.676000595092773 -75.1259994506836,-28.676000595092773z"></path></g><g opacity="1" transform="matrix(1,0,0,1,277.1549987792969,35.89799880981445)"><path fill="rgb(255,185,0)" fill-opacity="1" d=" M4.130000114440918,-15.869999885559082 C-9.071999549865723,-13.779000282287598 -27.54800033569336,5.414999961853027 -27.54800033569336,5.414999961853027 C-27.54800033569336,5.414999961853027 -4.044000148773193,17.959999084472656 9.156999588012695,15.869999885559082 C22.358999252319336,13.779000282287598 27.54800033569336,5.673999786376953 26.15999984741211,-3.0899999141693115 C24.770999908447266,-11.854999542236328 17.332000732421875,-17.961000442504883 4.130000114440918,-15.869999885559082z"></path></g><g opacity="1" transform="matrix(1,0,0,1,283.0429992675781,36.018001556396484)"><path fill="rgb(122,29,124)" fill-opacity="1" d=" M-1.5759999752044678,-9.946999549865723 C-9.383000373840332,-8.710000038146973 -15.006999969482422,-3.253999948501587 -14.13700008392334,2.240000009536743 C-13.267000198364258,7.732999801635742 -6.232999801635742,11.184000015258789 1.5750000476837158,9.946999549865723 C9.381999969482422,8.710000038146973 15.005999565124512,3.253999948501587 14.13599967956543,-2.240000009536743 C13.265999794006348,-7.732999801635742 6.230999946594238,-11.184000015258789 -1.5759999752044678,-9.946999549865723z"></path></g></g><g transform="matrix(1.7280664443969727,0.5711272358894348,-0.5711272358894348,1.7280664443969727,832.7996826171875,3.8905532360076904)" opacity="1" style="display: block;"><g opacity="1" transform="matrix(1,0,0,1,111.13899993896484,239.75900268554688)"><path fill="rgb(0,188,174)" fill-opacity="1" d=" M-9.017999649047852,-160.3280029296875 C-40.38100051879883,-237.9550018310547 -110.88999938964844,-209.46800231933594 -79.5270004272461,-131.84100341796875 C-28.049999237060547,-4.433000087738037 110.88899993896484,237.9550018310547 110.88899993896484,237.9550018310547 C110.88899993896484,237.9550018310547 42.45800018310547,-32.91999816894531 -9.017999649047852,-160.3280029296875z"></path></g><g opacity="1" transform="matrix(1,0,0,1,60.72200012207031,65.60199737548828)"><path fill="rgb(0,93,91)" fill-opacity="1" d=" M35.16299819946289,-1.3450000286102295 C22.961999893188477,-31.54400062561035 -31.60099983215332,-65.35199737548828 -31.60099983215332,-65.35199737548828 C-31.60099983215332,-65.35199737548828 -47.36399841308594,-3.13100004196167 -35.16299819946289,27.069000244140625 C-22.961999893188477,57.268001556396484 -1.3830000162124634,65.35199737548828 18.03700065612793,57.50600051879883 C37.457000732421875,49.65999984741211 47.36399841308594,28.854000091552734 35.16299819946289,-1.3450000286102295z"></path></g><g opacity="1" transform="matrix(1,0,0,1,137.31199645996094,272.8659973144531)"><path fill="rgb(0,93,91)" fill-opacity="1" d=" M-75.37999725341797,-204.84800720214844 C-75.37999725341797,-204.84800720214844 -84.71700286865234,-201.0760040283203 -84.71700286865234,-201.0760040283203 C-84.71700286865234,-201.0760040283203 84.71700286865234,204.84800720214844 84.71700286865234,204.84800720214844 C84.71700286865234,204.84800720214844 -75.37999725341797,-204.84800720214844 -75.37999725341797,-204.84800720214844z"></path></g><g opacity="1" transform="matrix(1,0,0,1,61.676998138427734,80.83000183105469)"><path fill="rgb(255,185,0)" fill-opacity="1" d=" M23.385000228881836,-9.447999954223633 C17.016000747680664,-25.211000442504883 1.3830000162124634,-33.7599983215332 -11.531999588012695,-28.54199981689453 C-24.44700050354004,-23.323999404907227 -29.753999710083008,-6.315000057220459 -23.385000228881836,9.447999954223633 C-17.016000747680664,25.211000442504883 -1.3839999437332153,33.7599983215332 11.531000137329102,28.54199981689453 C24.445999145507812,23.323999404907227 29.753999710083008,6.315000057220459 23.385000228881836,-9.447999954223633z"></path></g><g opacity="1" transform="matrix(1,0,0,1,61.676998138427734,80.8290023803711)"><path fill="rgb(122,29,124)" fill-opacity="1" d=" M15.673999786376953,-6.333000183105469 C11.470999717712402,-16.735000610351562 1.0470000505447388,-22.332000732421875 -7.610000133514404,-18.833999633789062 C-16.266000747680664,-15.336999893188477 -19.87700080871582,-4.068999767303467 -15.673999786376953,6.333000183105469 C-11.470999717712402,16.736000061035156 -1.0470000505447388,22.33300018310547 7.610000133514404,18.836000442504883 C16.266000747680664,15.338000297546387 19.87700080871582,4.068999767303467 15.673999786376953,-6.333000183105469z"></path></g><g opacity="1" transform="matrix(1,0,0,1,125.11199951171875,253.70899963378906)"><path fill="rgb(0,93,91)" fill-opacity="1" d=" M11.822999954223633,-75.99299621582031 C25.128000259399414,-34.733001708984375 38.34400177001953,9.723999977111816 50.262001037597656,51.446998596191406 C50.262001037597656,51.446998596191406 48.404998779296875,65.09200286865234 34.91400146484375,70.54299926757812 C21.42300033569336,75.99400329589844 10.616000175476074,67.46499633789062 10.616000175476074,67.46499633789062 C-9.79699993133545,29.19499969482422 -31.1560001373291,-11.949999809265137 -50.25299835205078,-50.85900115966797 C-50.255001068115234,-50.89099884033203 -50.262001037597656,-50.909000396728516 -50.262001037597656,-50.909000396728516 C-50.262001037597656,-50.909000396728516 -34.935001373291016,-38.36399841308594 -12.711999893188477,-47.34199905395508 C9.51200008392334,-56.32099914550781 11.822999954223633,-75.99299621582031 11.822999954223633,-75.99299621582031z"></path></g><g opacity="1" transform="matrix(1,0,0,1,136.6649932861328,261.2030029296875)"><path fill="rgb(255,185,0)" fill-opacity="1" d=" M14.89799976348877,-0.7929999828338623 C9.890999794006348,-13.185999870300293 -12.968000411987305,-26.871000289916992 -12.968000411987305,-26.871000289916992 C-12.968000411987305,-26.871000289916992 -19.905000686645508,-1.1480000019073486 -14.89799976348877,11.244999885559082 C-9.890999794006348,23.63800048828125 -0.824999988079071,26.871000289916992 7.4019999504089355,23.547000885009766 C15.630000114440918,20.222000122070312 19.905000686645508,11.600000381469727 14.89799976348877,-0.7929999828338623z"></path></g><g opacity="1" transform="matrix(1,0,0,1,136.3769989013672,265.718994140625)"><path fill="rgb(122,29,124)" fill-opacity="1" d=" M9.338000297546387,-3.7730000019073486 C6.376999855041504,-11.10200023651123 -0.20399999618530273,-15.354999542236328 -5.361000061035156,-13.270999908447266 C-10.517999649047852,-11.187999725341797 -12.298999786376953,-3.555999994277954 -9.336999893188477,3.7730000019073486 C-6.375999927520752,11.10200023651123 0.20499999821186066,15.354999542236328 5.361000061035156,13.270999908447266 C10.517999649047852,11.187999725341797 12.298999786376953,3.555999994277954 9.338000297546387,-3.7730000019073486z"></path></g></g><g transform="matrix(1.679134488105774,0.7020735144615173,-0.7020735144615173,1.679134488105774,586.6947021484375,47.808753967285156)" opacity="1" style="display: block;"><g opacity="1" transform="matrix(1,0,0,1,186.8679962158203,192.54400634765625)"><path fill="rgb(0,188,174)" fill-opacity="1" d=" M-73.75700378417969,-132.06900024414062 C-131.91600036621094,-192.29400634765625 -186.6179962158203,-139.468994140625 -128.45899963378906,-79.24400329589844 C-33.00299835205078,19.604000091552734 186.61900329589844,192.29400634765625 186.61900329589844,192.29400634765625 C186.61900329589844,192.29400634765625 21.698999404907227,-33.22200012207031 -73.75700378417969,-132.06900024414062z"></path></g><g opacity="1" transform="matrix(1,0,0,1,70.01699829101562,69.63300323486328)"><path fill="rgb(0,93,91)" fill-opacity="1" d=" M31.62700080871582,-20.892000198364258 C9.00100040435791,-44.321998596191406 -54.25299835205078,-55.22800064086914 -54.25299835205078,-55.22800064086914 C-54.25299835205078,-55.22800064086914 -45.560001373291016,8.369000434875488 -22.93400001525879,31.79800033569336 C-0.3089999854564667,55.22800064086914 22.72800064086914,54.63999938964844 37.79399871826172,40.09000015258789 C52.861000061035156,25.540000915527344 54.25299835205078,2.5380001068115234 31.62700080871582,-20.892000198364258z"></path></g><g opacity="1" transform="matrix(1,0,0,1,218.9080047607422,224.89300537109375)"><path fill="rgb(0,93,91)" fill-opacity="1" d=" M-147.3350067138672,-159.94500732421875 C-147.3350067138672,-159.94500732421875 -154.57899475097656,-152.94900512695312 -154.57899475097656,-152.94900512695312 C-154.57899475097656,-152.94900512695312 154.57899475097656,159.94500732421875 154.57899475097656,159.94500732421875 C154.57899475097656,159.94500732421875 -147.3350067138672,-159.94500732421875 -147.3350067138672,-159.94500732421875z"></path></g><g opacity="1" transform="matrix(1,0,0,1,76.13600158691406,76.9219970703125)"><path fill="rgb(255,185,0)" fill-opacity="1" d=" M18.14299964904785,-17.520000457763672 C6.333000183105469,-29.75 -11.36299991607666,-31.81999969482422 -21.382999420166016,-22.143999099731445 C-31.402999877929688,-12.468000411987305 -29.952999114990234,5.289999961853027 -18.14299964904785,17.520000457763672 C-6.333000183105469,29.75 11.364999771118164,31.81999969482422 21.384000778198242,22.143999099731445 C31.40399932861328,12.468000411987305 29.952999114990234,-5.289999961853027 18.14299964904785,-17.520000457763672z"></path></g><g opacity="1" transform="matrix(1,0,0,1,76.13600158691406,76.9219970703125)"><path fill="rgb(122,29,124)" fill-opacity="1" d=" M12.16100025177002,-11.744000434875488 C4.367000102996826,-19.81399917602539 -7.394999980926514,-21.099000930786133 -14.111000061035156,-14.61400032043457 C-20.82699966430664,-8.128000259399414 -19.952999114990234,3.671999931335449 -12.15999984741211,11.741999626159668 C-4.366000175476074,19.812999725341797 7.394999980926514,21.097999572753906 14.111000061035156,14.612000465393066 C20.82699966430664,8.12600040435791 19.95400047302246,-3.6740000247955322 12.16100025177002,-11.744000434875488z"></path></g><g opacity="1" transform="matrix(1,0,0,1,201.50900268554688,207.22300720214844)"><path fill="rgb(0,93,91)" fill-opacity="1" d=" M-19.302000045776367,-68.66100311279297 C8.491000175476074,-35.388999938964844 37.39799880981445,0.8790000081062317 64.0780029296875,35.099998474121094 C64.0780029296875,35.099998474121094 67.46900177001953,48.44599914550781 57.00199890136719,58.553001403808594 C46.53499984741211,68.66100311279297 33.319000244140625,64.8030014038086 33.319000244140625,64.8030014038086 C0.05700000002980232,36.965999603271484 -35.15999984741211,6.818999767303467 -67.44100189208984,-22.104000091552734 C-67.45500183105469,-22.131999969482422 -67.46900177001953,-22.14699935913086 -67.46900177001953,-22.14699935913086 C-67.46900177001953,-22.14699935913086 -48.558998107910156,-16.256000518798828 -31.316999435424805,-32.90599822998047 C-14.074999809265137,-49.555999755859375 -19.302000045776367,-68.66100311279297 -19.302000045776367,-68.66100311279297z"></path></g><g opacity="1" transform="matrix(1,0,0,1,213.58799743652344,218.85400390625)"><path fill="rgb(255,185,0)" fill-opacity="1" d=" M13.15999984741211,-9.098999977111816 C3.875,-18.714000701904297 -22.44499969482422,-22.839000701904297 -22.44499969482422,-22.839000701904297 C-22.44499969482422,-22.839000701904297 -19.240999221801758,3.6089999675750732 -9.956000328063965,13.223999977111816 C-0.6710000038146973,22.839000701904297 8.944999694824219,22.44099998474121 15.32800006866455,16.275999069213867 C21.711000442504883,10.112000465393066 22.44499969482422,0.515999972820282 13.15999984741211,-9.098999977111816z"></path></g><g opacity="1" transform="matrix(1,0,0,1,214.6580047607422,220.36500549316406)"><path fill="rgb(122,29,124)" fill-opacity="1" d=" M7.24399995803833,-6.995999813079834 C1.753000020980835,-12.682000160217285 -5.941999912261963,-14.15999984741211 -9.942999839782715,-10.295999526977539 C-13.942999839782715,-6.433000087738037 -12.734999656677246,1.309000015258789 -7.24399995803833,6.994999885559082 C-1.753000020980835,12.680999755859375 5.941999912261963,14.159000396728516 9.942000389099121,10.295000076293945 C13.942999839782715,6.432000160217285 12.734999656677246,-1.309999942779541 7.24399995803833,-6.995999813079834z"></path></g></g><g transform="matrix(1.6202967166900635,0.828877866268158,-0.828877866268158,1.6202967166900635,377.85113525390625,181.24005126953125)" opacity="1" style="display: block;"><g opacity="1" transform="matrix(1,0,0,1,235.52099609375,118.87999725341797)"><path fill="rgb(0,188,174)" fill-opacity="1" d=" M-127.75499725341797,-84.5770034790039 C-204.24000549316406,-118.62999725341797 -235.1699981689453,-49.159000396728516 -158.68499755859375,-15.104999542236328 C-33.1510009765625,40.7859992980957 235.1699981689453,118.62899780273438 235.1699981689453,118.62899780273438 C235.1699981689453,118.62899780273438 -2.2209999561309814,-28.68600082397461 -127.75499725341797,-84.5770034790039z"></path></g><g opacity="1" transform="matrix(1,0,0,1,65.03500366210938,62.36600112915039)"><path fill="rgb(0,93,91)" fill-opacity="1" d=" M27.70400047302246,-34.645999908447266 C-2.0510001182556152,-47.89400100708008 -64.78500366210938,-34.31100082397461 -64.78500366210938,-34.31100082397461 C-64.78500366210938,-34.31100082397461 -32.902000427246094,21.398000717163086 -3.1470000743865967,34.645999908447266 C26.607999801635742,47.89400100708008 47.74700164794922,38.71900177001953 56.26599884033203,19.583999633789062 C64.78500366210938,0.44999998807907104 57.45899963378906,-21.398000717163086 27.70400047302246,-34.645999908447266z"></path></g><g opacity="1" transform="matrix(1,0,0,1,268.7619934082031,145.75999450683594)"><path fill="rgb(0,93,91)" fill-opacity="1" d=" M-197.83299255371094,-91.7490005493164 C-197.83299255371094,-91.7490005493164 -201.9290008544922,-82.54900360107422 -201.9290008544922,-82.54900360107422 C-201.9290008544922,-82.54900360107422 201.9290008544922,91.7490005493164 201.9290008544922,91.7490005493164 C201.9290008544922,91.7490005493164 -197.83299255371094,-91.7490005493164 -197.83299255371094,-91.7490005493164z"></path></g><g opacity="1" transform="matrix(1,0,0,1,79.64399719238281,63.40299987792969)"><path fill="rgb(255,185,0)" fill-opacity="1" d=" M10.258999824523926,-23.041000366210938 C-5.271999835968018,-29.95599937438965 -22.457000732421875,-25.2450008392334 -28.121999740600586,-12.520000457763672 C-33.78799819946289,0.20499999821186066 -25.790000915527344,16.125999450683594 -10.258999824523926,23.041000366210938 C5.2729997634887695,29.95599937438965 22.457000732421875,25.2450008392334 28.12299919128418,12.520000457763672 C33.78799819946289,-0.20499999821186066 25.790000915527344,-16.125999450683594 10.258999824523926,-23.041000366210938z"></path></g><g opacity="1" transform="matrix(1,0,0,1,79.64399719238281,63.40299987792969)"><path fill="rgb(122,29,124)" fill-opacity="1" d=" M6.875999927520752,-15.444000244140625 C-3.372999906539917,-20.006999969482422 -14.760000228881836,-16.791000366210938 -18.558000564575195,-8.26200008392334 C-22.354999542236328,0.2669999897480011 -17.125,10.880999565124512 -6.875999927520752,15.444000244140625 C3.372999906539917,20.006999969482422 14.76099967956543,16.79199981689453 18.558000564575195,8.262999534606934 C22.354999542236328,-0.26600000262260437 17.125,-10.880999565124512 6.875999927520752,-15.444000244140625z"></path></g><g opacity="1" transform="matrix(1,0,0,1,249.62600708007812,132.83700561523438)"><path fill="rgb(0,93,91)" fill-opacity="1" d=" M-48.542999267578125,-52.016998291015625 C-10.3100004196167,-31.57900047302246 30.07699966430664,-8.781000137329102 67.63400268554688,12.954000473022461 C67.63400268554688,12.954000473022461 75.77799987792969,24.058000564575195 69.85900115966797,37.35100173950195 C63.941001892089844,50.64400100708008 50.242000579833984,52.016998291015625 50.242000579833984,52.016998291015625 C8.973999977111816,38.667999267578125 -34.97100067138672,23.906999588012695 -75.73699951171875,9.184000015258789 C-75.76000213623047,9.161999702453613 -75.77799987792969,9.154000282287598 -75.77799987792969,9.154000282287598 C-75.77799987792969,9.154000282287598 -56.03799819946289,7.5320000648498535 -46.28900146484375,-14.364999771118164 C-36.540000915527344,-36.262001037597656 -48.542999267578125,-52.016998291015625 -48.542999267578125,-52.016998291015625z"></path></g><g opacity="1" transform="matrix(1,0,0,1,257.5320129394531,144.82200622558594)"><path fill="rgb(255,185,0)" fill-opacity="1" d=" M11.517999649047852,-14.678999900817871 C-0.6930000185966492,-20.114999771118164 -26.642000198364258,-14.079999923706055 -26.642000198364258,-14.079999923706055 C-26.642000198364258,-14.079999923706055 -13.762999534606934,9.241999626159668 -1.5529999732971191,14.678999900817871 C10.657999992370605,20.114999771118164 19.424999237060547,16.143999099731445 23.034000396728516,8.036999702453613 C26.64299964904785,-0.0689999982714653 23.729000091552734,-9.243000030517578 11.517999649047852,-14.678999900817871z"></path></g><g opacity="1" transform="matrix(1,0,0,1,261.8139953613281,144.51100158691406)"><path fill="rgb(122,29,124)" fill-opacity="1" d=" M4.0960001945495605,-9.199999809265137 C-3.125,-12.414999961853027 -10.812999725341797,-10.902999877929688 -13.074999809265137,-5.822000026702881 C-15.338000297546387,-0.7409999966621399 -11.317000389099121,5.985000133514404 -4.0960001945495605,9.199999809265137 C3.125,12.414999961853027 10.812999725341797,10.902000427246094 13.074999809265137,5.821000099182129 C15.338000297546387,0.7400000095367432 11.317000389099121,-5.985000133514404 4.0960001945495605,-9.199999809265137z"></path></g></g><g transform="matrix(1.5518999099731445,0.9507923722267151,-0.9507923722267151,1.5518999099731445,197.46617126464844,380.3311767578125)" opacity="1" style="display: block;"><g opacity="1" transform="matrix(1,0,0,1,265.42401123046875,42.108001708984375)"><path fill="rgb(0,188,174)" fill-opacity="1" d=" M-163.1479949951172,-38.93600082397461 C-246.82000732421875,-41.858001708984375 -249.4739990234375,34.14099884033203 -165.802001953125,37.0629997253418 C-28.472000122070312,41.858001708984375 249.4739990234375,13.519000053405762 249.4739990234375,13.519000053405762 C249.4739990234375,13.519000053405762 -25.81800079345703,-34.13999938964844 -163.1479949951172,-38.93600082397461z"></path></g><g opacity="1" transform="matrix(1,0,0,1,66.8280029296875,40.5989990234375)"><path fill="rgb(0,93,91)" fill-opacity="1" d=" M19.049999237060547,-37.902000427246094 C-13.50100040435791,-39.03900146484375 -66.5780029296875,-2.943000078201294 -66.5780029296875,-2.943000078201294 C-66.5780029296875,-2.943000078201294 -16.148000717163086,36.76499938964844 16.402999877929688,37.902000427246094 C48.95399856567383,39.03900146484375 65.11599731445312,22.61199951171875 65.84700012207031,1.6799999475479126 C66.5780029296875,-19.25200080871582 51.60100173950195,-36.76499938964844 19.049999237060547,-37.902000427246094z"></path></g><g opacity="1" transform="matrix(1,0,0,1,295.0249938964844,45.435001373291016)"><path fill="rgb(0,93,91)" fill-opacity="1" d=" M-219.52099609375,-10.190999984741211 C-219.52099609375,-10.190999984741211 -219.8719940185547,-0.12700000405311584 -219.8719940185547,-0.12700000405311584 C-219.8719940185547,-0.12700000405311584 219.8719940185547,10.190999984741211 219.8719940185547,10.190999984741211 C219.8719940185547,10.190999984741211 -219.52099609375,-10.190999984741211 -219.52099609375,-10.190999984741211z"></path></g><g opacity="1" transform="matrix(1,0,0,1,87.10399627685547,40.6879997253418)"><path fill="rgb(255,185,0)" fill-opacity="1" d=" M0.8809999823570251,-25.20599937438965 C-16.110000610351562,-25.798999786376953 -30.277000427246094,-14.994999885559082 -30.763999938964844,-1.0750000476837158 C-31.25,12.845999717712402 -17.871000289916992,24.61199951171875 -0.8799999952316284,25.204999923706055 C16.110000610351562,25.798999786376953 30.277999877929688,14.994999885559082 30.763999938964844,1.0740000009536743 C31.25,-12.847000122070312 17.871999740600586,-24.613000869750977 0.8809999823570251,-25.20599937438965z"></path></g><g opacity="1" transform="matrix(1,0,0,1,87.10399627685547,40.6879997253418)"><path fill="rgb(122,29,124)" fill-opacity="1" d=" M0.5899999737739563,-16.895000457763672 C-10.621999740600586,-17.28700065612793 -19.97599983215332,-10.038999557495117 -20.302000045776367,-0.7080000042915344 C-20.628000259399414,8.621999740600586 -11.802000045776367,16.503999710083008 -0.5899999737739563,16.895000457763672 C10.621999740600586,17.28700065612793 19.97599983215332,10.039999961853027 20.302000045776367,0.7099999785423279 C20.628000259399414,-8.621000289916992 11.802000045776367,-16.503000259399414 0.5899999737739563,-16.895000457763672z"></path></g><g opacity="1" transform="matrix(1,0,0,1,276.9389953613281,44.810001373291016)"><path fill="rgb(0,93,91)" fill-opacity="1" d=" M-70.71499633789062,-33.46500015258789 C-27.610000610351562,-28.83799934387207 18.378000259399414,-22.82900047302246 61.34199905395508,-16.746000289916992 C61.34199905395508,-16.746000289916992 73.052001953125,-9.50100040435791 72.54499816894531,5.040999889373779 C72.03700256347656,19.58300018310547 59.849998474121094,25.988000869750977 59.849998474121094,25.988000869750977 C16.586000442504883,29.06999969482422 -29.68899917602539,31.84600067138672 -73.00199890136719,33.46500015258789 C-73.03199768066406,33.45399856567383 -73.052001953125,33.45399856567383 -73.052001953125,33.45399856567383 C-73.052001953125,33.45399856567383 -55.356998443603516,24.55500030517578 -54.52000045776367,0.6010000109672546 C-53.683998107910156,-23.35300064086914 -70.71499633789062,-33.46500015258789 -70.71499633789062,-33.46500015258789z"></path></g><g opacity="1" transform="matrix(1,0,0,1,279.88800048828125,47.67399978637695)"><path fill="rgb(255,185,0)" fill-opacity="1" d=" M7.830999851226807,-16.058000564575195 C-5.5269999504089355,-16.52400016784668 -27.32699966430664,-1.2079999446868896 -27.32699966430664,-1.2079999446868896 C-27.32699966430664,-1.2079999446868896 -6.6479997634887695,15.590999603271484 6.710000038146973,16.058000564575195 C20.066999435424805,16.52400016784668 26.707000732421875,9.557999610900879 27.017000198364258,0.6890000104904175 C27.326000213623047,-8.178999900817871 21.18899917602539,-15.592000007629395 7.830999851226807,-16.058000564575195z"></path></g><g opacity="1" transform="matrix(1,0,0,1,286.3919982910156,47.64699935913086)"><path fill="rgb(122,29,124)" fill-opacity="1" d=" M0.35199999809265137,-10.0649995803833 C-7.547999858856201,-10.340999603271484 -14.109000205993652,-6.059000015258789 -14.303999900817871,-0.5 C-14.498000144958496,5.058000087738037 -8.25100040435791,9.788000106811523 -0.35100001096725464,10.064000129699707 C7.548999786376953,10.34000015258789 14.111000061035156,6.057000160217285 14.305000305175781,0.49900001287460327 C14.49899959564209,-5.059999942779541 8.251999855041504,-9.788999557495117 0.35199999809265137,-10.0649995803833z"></path></g></g><g transform="matrix(1.5533784627914429,-0.9483748078346252,0.9483748078346252,1.5533784627914429,767.0223999023438,674.6333618164062)" opacity="1" style="display: block;"><g opacity="1" transform="matrix(1,0,0,1,50.604000091552734,87.95899963378906)"><path fill="rgb(255,185,0)" fill-opacity="1" d=" M9.821000099182129,-59.340999603271484 C24.58799934387207,-87.70899963378906 35.63600158691406,-81.8270034790039 37.417999267578125,-80.9000015258789 C39.20000076293945,-79.97200012207031 50.35499954223633,-74.2959976196289 35.58700180053711,-45.928001403808594 C11.350000381469727,0.6320000290870667 -50.35499954223633,87.70899963378906 -50.35499954223633,87.70899963378906 C-50.35499954223633,87.70899963378906 -14.416999816894531,-12.781000137329102 9.821000099182129,-59.340999603271484z"></path></g></g><g transform="matrix(1.5105347633361816,-1.0152262449264526,1.0152262449264526,1.5105347633361816,791.8045043945312,734.2022094726562)" opacity="1" style="display: block;"><g opacity="1" transform="matrix(1,0,0,1,77.28099822998047,67.53600311279297)"><path fill="rgb(255,185,0)" fill-opacity="1" d=" M33.847999572753906,-46.51599884033203 C58.16699981689453,-67.28600311279297 66.20700073242188,-57.69300079345703 67.51200103759766,-56.16600036621094 C68.81600189208984,-54.63800048828125 77.03199768066406,-45.196998596191406 52.7140007019043,-24.426000595092773 C12.798999786376953,9.663999557495117 -77.03099822998047,67.28600311279297 -77.03099822998047,67.28600311279297 C-77.03099822998047,67.28600311279297 -6.065999984741211,-12.425999641418457 33.847999572753906,-46.51599884033203z"></path></g></g><g transform="matrix(1.4456974267959595,-1.1056033372879028,1.1056033372879028,1.4456974267959595,848.3600463867188,834.6859741210938)" opacity="1" style="display: block;"><g opacity="1" transform="matrix(1,0,0,1,92.74099731445312,37.3129997253418)"><path fill="rgb(255,185,0)" fill-opacity="1" d=" M52.94499969482422,-26.915000915527344 C83.27400207519531,-37.0629997253418 87.13500213623047,-25.156999588012695 87.77300262451172,-23.25200080871582 C88.41000366210938,-21.347999572753906 92.49099731445312,-9.515000343322754 62.1619987487793,0.6320000290870667 C12.383999824523926,17.288000106811523 -92.49099731445312,37.0629997253418 -92.49099731445312,37.0629997253418 C-92.49099731445312,37.0629997253418 3.1670000553131104,-10.258999824523926 52.94499969482422,-26.915000915527344z"></path></g></g><g transform="matrix(1.405846357345581,-1.1558527946472168,1.1558527946472168,1.405846357345581,916.0816650390625,927.7333374023438)" opacity="1" style="display: block;"><g opacity="1" transform="matrix(1,0,0,1,95.61699676513672,17.326000213623047)"><path fill="rgb(255,185,0)" fill-opacity="1" d=" M63.44599914550781,-13.871999740600586 C95.36799621582031,-11.920000076293945 94.48799896240234,0.5669999718666077 94.36599731445312,2.572000026702881 C94.24299621582031,4.576000213623047 93.59400177001953,17.075000762939453 61.67300033569336,15.121999740600586 C9.279000282287598,11.918000221252441 -95.36799621582031,-9.034000396728516 -95.36799621582031,-9.034000396728516 C-95.36799621582031,-9.034000396728516 11.053000450134277,-17.076000213623047 63.44599914550781,-13.871999740600586z"></path></g></g><g transform="matrix(1.802425503730774,-0.2523133158683777,0.2523133158683777,1.802425503730774,879.3779296875,602.1708374023438)" opacity="1" style="display: block;"><g opacity="1" transform="matrix(1,0,0,1,18.7549991607666,95.61000061035156)"><path fill="rgb(255,185,0)" fill-opacity="1" d=" M-13.473999977111816,-63.5260009765625 C-10.409000396728516,-95.36000061035156 2.0369999408721924,-94.04499816894531 4.0370001792907715,-93.85299682617188 C6.035999774932861,-93.66000366210938 18.5049991607666,-92.57599639892578 15.4399995803833,-60.742000579833984 C10.409000396728516,-8.491999626159668 -14.182000160217285,95.35900115966797 -14.182000160217285,95.35900115966797 C-14.182000160217285,95.35900115966797 -18.5049991607666,-11.277000427246094 -13.473999977111816,-63.5260009765625z"></path></g></g><g transform="matrix(1.469578504562378,-1.0736569166183472,1.0736569166183472,1.469578504562378,765.1967163085938,713.2139282226562)" opacity="1" style="display: block;"><g opacity="1" transform="matrix(1,0,0,1,65.13500213623047,79.197998046875)"><path fill="rgb(255,110,0)" fill-opacity="1" d=" M44.97700119018555,-35.83599853515625 C64.88600158691406,-60.8650016784668 55.018001556396484,-68.56500244140625 53.44599914550781,-69.81500244140625 C51.874000549316406,-71.06500244140625 42.1510009765625,-78.9469985961914 22.242000579833984,-53.917999267578125 C-10.434000015258789,-12.838000297546387 -64.88500213623047,78.947998046875 -64.88500213623047,78.947998046875 C-64.88500213623047,78.947998046875 12.300999641418457,5.24399995803833 44.97700119018555,-35.83599853515625z"></path></g></g><g transform="matrix(1.451492428779602,-1.0979841947555542,1.0979841947555542,1.451492428779602,818.0033569335938,790.9685668945312)" opacity="1" style="display: block;"><g opacity="1" transform="matrix(1,0,0,1,86.5979995727539,53.4010009765625)"><path fill="rgb(255,110,0)" fill-opacity="1" d=" M58.51300048828125,-12.119999885559082 C86.3479995727539,-27.868000030517578 80.08499908447266,-38.702999114990234 79.09500122070312,-40.45199966430664 C78.10600280761719,-42.20000076293945 72.04399871826172,-53.1510009765625 44.20899963378906,-37.40299987792969 C-1.4769999980926514,-11.555000305175781 -86.3479995727539,53.150001525878906 -86.3479995727539,53.150001525878906 C-86.3479995727539,53.150001525878906 12.82699966430664,13.727999687194824 58.51300048828125,-12.119999885559082z"></path></g></g><g transform="matrix(1.384909749031067,-1.180857539176941,1.180857539176941,1.384909749031067,889.9759521484375,894.0203857421875)" opacity="1" style="display: block;"><g opacity="1" transform="matrix(1,0,0,1,95.48500061035156,20.16200065612793)"><path fill="rgb(255,110,0)" fill-opacity="1" d=" M63.52799987792969,13.060999870300293 C95.23600006103516,8.88700008392334 93.48600006103516,-3.50600004196167 93.2239990234375,-5.497000217437744 C92.96199798583984,-7.488999843597412 91.44300079345703,-19.91200065612793 59.73500061035156,-15.73799991607666 C7.692999839782715,-8.88700008392334 -95.23500061035156,19.31399917602539 -95.23500061035156,19.31399917602539 C-95.23500061035156,19.31399917602539 11.486000061035156,19.91200065612793 63.52799987792969,13.060999870300293z"></path></g></g><g transform="matrix(1.3065621852874756,-1.2670023441314697,1.2670023441314697,1.3065621852874756,934.7153930664062,945.3438110351562)" opacity="1" style="display: block;"><g opacity="1" transform="matrix(1,0,0,1,94.13999938964844,31.093000411987305)"><path fill="rgb(255,110,0)" fill-opacity="1" d=" M55.654998779296875,22.833999633789062 C86.61799621582031,30.841999053955078 89.63899993896484,18.695999145507812 90.14199829101562,16.750999450683594 C90.6449966430664,14.805999755859375 93.88999938964844,2.7179999351501465 62.926998138427734,-5.289000034332275 C12.107999801635742,-18.43199920654297 -93.89099884033203,-30.841999053955078 -93.89099884033203,-30.841999053955078 C-93.89099884033203,-30.841999053955078 4.835999965667725,9.690999984741211 55.654998779296875,22.833999633789062z"></path></g></g><g transform="matrix(-1.8356913328170776,-0.10905773937702179,-0.10905773937702179,1.8356913328170776,956.1826171875,602.5723266601562)" opacity="1" style="display: block;"><g opacity="1" transform="matrix(1,0,0,1,34.222999572753906,93.49800109863281)"><path fill="rgb(255,110,0)" fill-opacity="1" d=" M24.889999389648438,-54.33300018310547 C33.972999572753906,-84.99800109863281 21.940000534057617,-88.44100189208984 20.013999938964844,-89.01200103759766 C18.08799934387207,-89.58200073242188 6.120999813079834,-93.24800109863281 -2.9619998931884766,-62.58300018310547 C-17.871000289916992,-12.253999710083008 -33.972999572753906,93.24700164794922 -33.972999572753906,93.24700164794922 C-33.972999572753906,93.24700164794922 9.982000350952148,-4.004000186920166 24.889999389648438,-54.33300018310547z"></path></g></g><g transform="matrix(-1.8349533081054688,-0.06507867574691772,-0.06507867574691772,1.8349533081054688,949.4298706054688,623.9869995117188)" opacity="1" style="display: block;"><g opacity="1" transform="matrix(1,0,0,1,50.604000091552734,87.95899963378906)"><path fill="rgb(255,185,0)" fill-opacity="1" d=" M9.821000099182129,-59.340999603271484 C24.58799934387207,-87.70899963378906 35.63600158691406,-81.8270034790039 37.417999267578125,-80.9000015258789 C39.20000076293945,-79.97200012207031 50.35499954223633,-74.2959976196289 35.58700180053711,-45.928001403808594 C11.350000381469727,0.6320000290870667 -50.35499954223633,87.70899963378906 -50.35499954223633,87.70899963378906 C-50.35499954223633,87.70899963378906 -14.416999816894531,-12.781000137329102 9.821000099182129,-59.340999603271484z"></path></g></g><g transform="matrix(-1.8281444311141968,-0.13978728652000427,-0.13978728652000427,1.8281444311141968,956.114501953125,688.9902954101562)" opacity="1" style="display: block;"><g opacity="1" transform="matrix(1,0,0,1,77.28099822998047,67.53600311279297)"><path fill="rgb(255,185,0)" fill-opacity="1" d=" M33.847999572753906,-46.51599884033203 C58.16699981689453,-67.28600311279297 66.20700073242188,-57.69300079345703 67.51200103759766,-56.16600036621094 C68.81600189208984,-54.63800048828125 77.03199768066406,-45.196998596191406 52.7140007019043,-24.426000595092773 C12.798999786376953,9.663999557495117 -77.03099822998047,67.28600311279297 -77.03099822998047,67.28600311279297 C-77.03099822998047,67.28600311279297 -6.065999984741211,-12.425999641418457 33.847999572753906,-46.51599884033203z"></path></g></g><g transform="matrix(-1.8123712539672852,-0.2609628140926361,-0.2609628140926361,1.8123712539672852,957.3440551757812,805.3607788085938)" opacity="1" style="display: block;"><g opacity="1" transform="matrix(1,0,0,1,92.74099731445312,37.3129997253418)"><path fill="rgb(255,185,0)" fill-opacity="1" d=" M52.94499969482422,-26.915000915527344 C83.27400207519531,-37.0629997253418 87.13500213623047,-25.156999588012695 87.77300262451172,-23.25200080871582 C88.41000366210938,-21.347999572753906 92.49099731445312,-9.515000343322754 62.1619987487793,0.6320000290870667 C12.383999824523926,17.288000106811523 -92.49099731445312,37.0629997253418 -92.49099731445312,37.0629997253418 C-92.49099731445312,37.0629997253418 3.1670000553131104,-10.258999824523926 52.94499969482422,-26.915000915527344z"></path></g></g><g transform="matrix(-1.794883370399475,-0.34026142954826355,-0.34026142954826355,1.794883370399475,943.8446044921875,920.1495361328125)" opacity="1" style="display: block;"><g opacity="1" transform="matrix(1,0,0,1,95.61699676513672,17.326000213623047)"><path fill="rgb(255,185,0)" fill-opacity="1" d=" M63.44599914550781,-13.871999740600586 C95.36799621582031,-11.920000076293945 94.48799896240234,0.5669999718666077 94.36599731445312,2.572000026702881 C94.24299621582031,4.576000213623047 93.59400177001953,17.075000762939453 61.67300033569336,15.121999740600586 C9.279000282287598,11.918000221252441 -95.36799621582031,-9.034000396728516 -95.36799621582031,-9.034000396728516 C-95.36799621582031,-9.034000396728516 11.053000450134277,-17.076000213623047 63.44599914550781,-13.871999740600586z"></path></g></g><g transform="matrix(-1.8164876699447632,-0.14560483396053314,-0.14560483396053314,1.8164876699447632,958.84033203125,658.119384765625)" opacity="1" style="display: block;"><g opacity="1" transform="matrix(1,0,0,1,65.13500213623047,79.197998046875)"><path fill="rgb(255,110,0)" fill-opacity="1" d=" M44.97700119018555,-35.83599853515625 C64.88600158691406,-60.8650016784668 55.018001556396484,-68.56500244140625 53.44599914550781,-69.81500244140625 C51.874000549316406,-71.06500244140625 42.1510009765625,-78.9469985961914 22.242000579833984,-53.917999267578125 C-10.434000015258789,-12.838000297546387 -64.88500213623047,78.947998046875 -64.88500213623047,78.947998046875 C-64.88500213623047,78.947998046875 12.300999641418457,5.24399995803833 44.97700119018555,-35.83599853515625z"></path></g></g><g transform="matrix(-1.8054531812667847,-0.23993243277072906,-0.23993243277072906,1.8054531812667847,961.3760375976562,753.0386352539062)" opacity="1" style="display: block;"><g opacity="1" transform="matrix(1,0,0,1,86.5979995727539,53.4010009765625)"><path fill="rgb(255,110,0)" fill-opacity="1" d=" M58.51300048828125,-12.119999885559082 C86.3479995727539,-27.868000030517578 80.08499908447266,-38.702999114990234 79.09500122070312,-40.45199966430664 C78.10600280761719,-42.20000076293945 72.04399871826172,-53.1510009765625 44.20899963378906,-37.40299987792969 C-1.4769999980926514,-11.555000305175781 -86.3479995727539,53.150001525878906 -86.3479995727539,53.150001525878906 C-86.3479995727539,53.150001525878906 12.82699966430664,13.727999687194824 58.51300048828125,-12.119999885559082z"></path></g></g><g transform="matrix(-1.7856907844543457,-0.3548036813735962,-0.3548036813735962,1.7856907844543457,949.9321899414062,878.41796875)" opacity="1" style="display: block;"><g opacity="1" transform="matrix(1,0,0,1,95.48500061035156,20.16200065612793)"><path fill="rgb(255,110,0)" fill-opacity="1" d=" M63.52799987792969,13.060999870300293 C95.23600006103516,8.88700008392334 93.48600006103516,-3.50600004196167 93.2239990234375,-5.497000217437744 C92.96199798583984,-7.488999843597412 91.44300079345703,-19.91200065612793 59.73500061035156,-15.73799991607666 C7.692999839782715,-8.88700008392334 -95.23500061035156,19.31399917602539 -95.23500061035156,19.31399917602539 C-95.23500061035156,19.31399917602539 11.486000061035156,19.91200065612793 63.52799987792969,13.060999870300293z"></path></g></g><g transform="matrix(-1.762603998184204,-0.4534611105918884,-0.4534611105918884,1.762603998184204,935.9133911132812,945.0262451171875)" opacity="1" style="display: block;"><g opacity="1" transform="matrix(1,0,0,1,94.13999938964844,31.093000411987305)"><path fill="rgb(255,110,0)" fill-opacity="1" d=" M55.654998779296875,22.833999633789062 C86.61799621582031,30.841999053955078 89.63899993896484,18.695999145507812 90.14199829101562,16.750999450683594 C90.6449966430664,14.805999755859375 93.88999938964844,2.7179999351501465 62.926998138427734,-5.289000034332275 C12.107999801635742,-18.43199920654297 -93.89099884033203,-30.841999053955078 -93.89099884033203,-30.841999053955078 C-93.89099884033203,-30.841999053955078 4.835999965667725,9.690999984741211 55.654998779296875,22.833999633789062z"></path></g></g><g transform="matrix(1.7940396070480347,-0.3063032031059265,0.3063032031059265,1.7940396070480347,834.696044921875,196.25531005859375)" opacity="1" style="display: block;"><g opacity="1" transform="matrix(1,0,0,1,21.235000610351562,40.14500045776367)"><path fill="rgb(255,110,0)" fill-opacity="1" d=" M6.23799991607666,-13.611000061035156 C-3.6010000705718994,-31.305999755859375 -9.847000122070312,-33.375999450683594 -14.647000312805176,-30.70599937438965 C-19.44700050354004,-28.03700065612793 -20.985000610351562,-21.641000747680664 -11.145999908447266,-3.944999933242798 C-1.305999994277954,13.75100040435791 20.985000610351562,33.375 20.985000610351562,33.375 C20.985000610351562,33.375 16.07699966430664,4.085000038146973 6.23799991607666,-13.611000061035156z"></path></g><g opacity="1" transform="matrix(1,0,0,1,16.159000396728516,26.652000427246094)"><path fill="rgb(255,185,0)" fill-opacity="1" d=" M5.625,-3.127000093460083 C2.118000030517578,-9.432999610900879 -3.243000030517578,-13.145999908447266 -6.348999977111816,-11.418999671936035 C-9.456000328063965,-9.690999984741211 -9.130999565124512,-3.178999900817871 -5.624000072479248,3.127000093460083 C-2.118000030517578,9.434000015258789 3.243000030517578,13.145999908447266 6.348999977111816,11.418999671936035 C9.454999923706055,9.692000389099121 9.131999969482422,3.178999900817871 5.625,-3.127000093460083z"></path></g><g opacity="1" transform="matrix(1,0,0,1,34.61199951171875,36.8849983215332)"><path fill="rgb(255,110,0)" fill-opacity="1" d=" M9.821000099182129,-12.560999870300293 C6.626999855041504,-32.55500030517578 1.465999960899353,-36.6349983215332 -3.9570000171661377,-35.76900100708008 C-9.380999565124512,-34.902000427246094 -13.015000343322754,-29.41699981689453 -9.821000099182129,-9.423999786376953 C-6.627999782562256,10.569999694824219 7.607999801635742,36.6349983215332 7.607999801635742,36.6349983215332 C7.607999801635742,36.6349983215332 13.015000343322754,7.433000087738037 9.821000099182129,-12.560999870300293z"></path></g><g opacity="1" transform="matrix(1,0,0,1,33.76100158691406,20.565000534057617)"><path fill="rgb(255,185,0)" fill-opacity="1" d=" M6.355000019073486,-1.0149999856948853 C5.2170000076293945,-8.140000343322754 1.4490000009536743,-13.461999893188477 -2.059999942779541,-12.902000427246094 C-5.570000171661377,-12.340999603271484 -7.492000102996826,-6.110000133514404 -6.354000091552734,1.0149999856948853 C-5.216000080108643,8.140999794006348 -1.4479999542236328,13.461999893188477 2.061000108718872,12.902000427246094 C5.571000099182129,12.340999603271484 7.493000030517578,6.110000133514404 6.355000019073486,-1.0149999856948853z"></path></g><g opacity="1" transform="matrix(1,0,0,1,51.36000061035156,37.00299835205078)"><path fill="rgb(255,110,0)" fill-opacity="1" d=" M9.765000343322754,-8.956000328063965 C13.60200023651123,-28.836000442504883 10.14799976348877,-34.433998107910156 4.755000114440918,-35.474998474121094 C-0.6380000114440918,-36.51599884033203 -5.927999973297119,-32.60599899291992 -9.765000343322754,-12.725000381469727 C-13.60200023651123,7.15500020980835 -9.140000343322754,36.516998291015625 -9.140000343322754,36.516998291015625 C-9.140000343322754,36.516998291015625 5.927999973297119,10.923999786376953 9.765000343322754,-8.956000328063965z"></path></g><g opacity="1" transform="matrix(1,0,0,1,52.38199996948242,20.865999221801758)"><path fill="rgb(255,185,0)" fill-opacity="1" d=" M6.318999767303467,1.218999981880188 C7.685999870300293,-5.866000175476074 5.966000080108643,-12.154999732971191 2.4769999980926514,-12.829000473022461 C-1.0130000114440918,-13.501999855041504 -4.949999809265137,-8.305000305175781 -6.317999839782715,-1.2200000286102295 C-7.684999942779541,5.864999771118164 -5.965000152587891,12.154000282287598 -2.4749999046325684,12.82800006866455 C1.0140000581741333,13.50100040435791 4.952000141143799,8.303999900817871 6.318999767303467,1.218999981880188z"></path></g></g><g transform="matrix(1.8114914894104004,-0.1757795661687851,0.1757795661687851,1.8114914894104004,843.2327880859375,317.2315368652344)" opacity="1" style="display: block;"><g opacity="1" transform="matrix(1,0,0,1,50.36600112915039,135.67300415039062)"><path fill="rgb(122,29,124)" fill-opacity="1" d=" M50.11600112915039,-95.26899719238281 C50.11600112915039,-114.67900085449219 22.68000030517578,-135.42300415039062 3.2699999809265137,-135.42300415039062 C-16.139999389648438,-135.42300415039062 -30.191999435424805,-128.7310028076172 -30.191999435424805,-108.65399932861328 C-30.191999435424805,-108.65399932861328 -30.191999435424805,-68.5 -30.191999435424805,-68.5 C-30.191999435424805,-68.5 -36.88399887084961,55.11600112915039 -43.57600021362305,95.26899719238281 C-50.11600112915039,134.50999450683594 16.65399932861328,135.42300415039062 9.961999893188477,95.26899719238281 C3.2699999809265137,55.11600112915039 9.961999893188477,-68.5 9.961999893188477,-68.5 C27.604999542236328,-70.3759994506836 50.11600112915039,-77.12899780273438 50.11600112915039,-95.26899719238281z"></path></g><g opacity="1" transform="matrix(1,0,0,1,63.67399978637695,32.19900131225586)"><path fill="rgb(255,185,0)" fill-opacity="1" d=" M36.80799865722656,8.204999923706055 C36.80799865722656,14.317000389099121 34.25699996948242,19.128999710083008 30.19700050354004,22.89900016784668 C20.992000579833984,24.43899917602539 3.874000072479248,26.229999542236328 -10.038000106811523,21.59000015258789 C-30.114999771118164,14.897000312805176 -36.80799865722656,-11.871000289916992 -36.80799865722656,-11.871000289916992 C-36.80799865722656,-11.871000289916992 -24.590999603271484,-26.231000900268555 -3.3469998836517334,-18.56399917602539 C9.821999549865723,-13.812999725341797 24.656999588012695,-7.23799991607666 34.04100036621094,-2.9260001182556152 C35.803001403808594,0.7329999804496765 36.80799865722656,4.49399995803833 36.80799865722656,8.204999923706055z"></path></g><g opacity="1" transform="matrix(1,0,0,1,58.513999938964844,29.250999450683594)"><path fill="rgb(0,93,91)" fill-opacity="1" d=" M11.604000091552734,8.710000038146973 C11.604000091552734,8.710000038146973 11.17199993133545,-3.2929999828338623 1.4459999799728394,-6.000999927520752 C-8.279999732971191,-8.710000038146973 -11.602999687194824,2.371000051498413 -6.802000045776367,4.586999893188477 C-2,6.802999973297119 -0.7699999809265137,2.124000072479248 3.6619999408721924,3.2320001125335693 C8.093999862670898,4.340000152587891 11.604000091552734,8.710000038146973 11.604000091552734,8.710000038146973z"></path></g><g opacity="1" transform="matrix(1,0,0,1,101.61799621582031,46.321998596191406)"><path fill="rgb(255,110,0)" fill-opacity="1" d=" M-21.280000686645508,1.5509999990463257 C-21.280000686645508,1.5509999990463257 -13.894000053405762,-12.814000129699707 -1.7120000123977661,-10.859000205993652 C10.470000267028809,-8.904000282287598 21.280000686645508,12.814000129699707 21.280000686645508,12.814000129699707 C21.280000686645508,12.814000129699707 4.586999893188477,5.218999862670898 -4.435999870300293,7.550000190734863 C-13.460000038146973,9.880999565124512 -21.280000686645508,1.5509999990463257 -21.280000686645508,1.5509999990463257z"></path></g></g><g transform="matrix(1.8199999332427979,0,0,1.8199999332427979,785.7449951171875,616.5225219726562)" opacity="1" style="display: block;"><g opacity="1" transform="matrix(1,0,0,1,90.25,121.75)"><path fill="rgb(122,29,124)" fill-opacity="1" d=" M36,-49.5 C18,-76.5 0,-121.5 0,-121.5 C0,-121.5 -18,-76.5 -36,-49.5 C-54,-22.5 -90,31.5 -72,76.5 C-54,121.5 0,121.5 0,121.5 C0,121.5 54,121.5 72,76.5 C90,31.5 54,-22.5 36,-49.5z"></path></g></g></g></svg>